{"glyphs":{"0":{"ha":781,"x_min":0,"x_max":0,"o":"m 390 939 b 46 461 169 939 46 758 b 390 -17 46 164 169 -17 b 735 461 611 -17 735 164 b 390 939 735 758 611 939 z m 390 771 b 535 461 482 771 535 669 b 390 151 535 253 482 151 b 246 461 299 151 246 253 b 390 771 246 669 299 771 z "},"1":{"ha":499,"x_min":0,"x_max":0,"o":"m 390 0 l 390 922 l 261 922 b 63 817 194 885 122 847 l 63 639 b 193 696 100 654 151 676 l 193 0 z "},"2":{"ha":728,"x_min":0,"x_max":0,"o":"m 694 165 l 339 165 b 561 426 414 246 494 333 b 656 683 615 503 656 592 b 357 939 656 847 510 939 b 53 676 203 939 65 836 l 249 644 b 354 775 249 724 289 775 b 456 681 413 775 456 738 b 389 518 456 626 422 567 b 75 146 307 400 182 257 l 75 0 l 694 0 z "},"3":{"ha":744,"x_min":0,"x_max":0,"o":"m 244 388 b 318 394 271 393 301 394 b 488 265 417 394 488 350 b 356 150 488 190 425 150 b 204 256 285 150 232 189 l 39 179 b 354 -17 94 50 224 -17 b 688 267 536 -17 688 88 b 532 494 688 368 626 460 b 646 692 600 533 646 613 b 333 939 646 844 496 939 b 54 751 208 939 93 874 l 221 679 b 332 772 232 739 276 772 b 449 669 406 772 449 726 b 353 560 449 614 411 574 b 244 549 328 553 288 549 z "},"4":{"ha":768,"x_min":0,"x_max":0,"o":"m 615 0 l 615 226 l 744 226 l 744 389 l 615 389 l 615 922 l 418 922 b 31 392 297 751 147 543 l 31 226 l 421 226 l 421 0 z m 239 389 b 421 668 282 446 367 586 l 421 389 z "},"5":{"ha":717,"x_min":0,"x_max":0,"o":"m 636 922 l 131 922 b 100 458 126 800 114 592 l 228 368 b 346 425 263 410 301 425 b 478 290 426 425 478 368 b 347 150 478 218 429 150 b 204 250 294 150 233 174 l 39 167 b 351 -17 99 47 214 -17 b 678 306 536 -17 678 119 b 410 589 678 456 567 589 b 303 567 374 589 338 582 b 317 757 310 629 314 688 l 636 757 z "},"6":{"ha":771,"x_min":0,"x_max":0,"o":"m 535 983 b 46 364 271 876 46 665 b 404 -17 46 161 179 -17 b 725 306 596 -17 725 128 b 433 601 725 468 603 601 b 278 546 371 601 319 581 b 604 829 333 682 451 764 z m 243 360 b 388 439 274 410 331 439 b 528 293 464 439 528 388 b 394 146 528 215 478 146 b 243 360 283 146 232 250 z "},"7":{"ha":663,"x_min":0,"x_max":0,"o":"m 640 922 l 14 922 l 14 757 l 421 757 b 85 36 346 597 208 328 l 261 -43 b 640 799 361 197 526 561 z "},"8":{"ha":783,"x_min":0,"x_max":0,"o":"m 585 485 b 693 683 656 529 693 592 b 392 939 693 842 551 939 b 90 683 232 939 90 842 b 199 485 90 592 128 529 b 63 260 113 435 63 372 b 392 -17 63 106 196 -17 b 721 260 588 -17 721 106 b 585 485 721 372 671 435 z m 392 146 b 261 272 317 146 261 201 b 392 399 261 343 317 399 b 522 272 467 399 522 343 b 392 146 522 201 467 146 z m 392 560 b 282 669 326 560 282 608 b 392 776 282 732 326 776 b 501 669 457 776 501 732 b 392 560 501 608 457 560 z "},"9":{"ha":771,"x_min":0,"x_max":0,"o":"m 236 -61 b 725 558 500 46 725 257 b 367 939 725 761 592 939 b 46 617 175 939 46 794 b 338 321 46 454 168 321 b 493 376 400 321 451 342 b 167 93 438 240 319 158 z m 528 563 b 383 483 497 513 440 483 b 243 629 307 483 243 535 b 376 776 243 707 293 776 b 528 563 488 776 539 672 z "},"\r":{"ha":694,"x_min":0,"x_max":0,"o":""}," ":{"ha":347,"x_min":0,"x_max":0,"o":""},"'":{"ha":388,"x_min":0,"x_max":0,"o":"m 283 569 l 297 972 l 92 972 l 104 569 z "},"\"":{"ha":703,"x_min":0,"x_max":0,"o":"m 282 569 l 296 972 l 92 972 l 104 569 z m 599 569 l 613 972 l 407 972 l 421 569 z "},"#":{"ha":829,"x_min":0,"x_max":0,"o":"m 19 364 l 19 231 l 124 231 l 81 0 l 232 0 l 275 231 l 454 231 l 411 0 l 564 0 l 607 231 l 731 231 l 731 364 l 632 364 l 671 561 l 810 561 l 810 694 l 697 694 l 742 925 l 589 925 l 544 694 l 365 694 l 410 925 l 257 925 l 214 694 l 99 694 l 99 561 l 188 561 l 150 364 z m 340 561 l 518 561 l 479 364 l 301 364 z "},"&":{"ha":961,"x_min":0,"x_max":0,"o":"m 978 88 l 582 442 l 475 315 l 575 224 b 426 149 539 176 486 149 b 265 304 339 149 265 215 b 342 433 265 357 292 404 l 372 407 l 481 532 b 333 731 375 626 333 674 b 431 824 333 783 376 824 b 533 728 490 824 524 783 l 711 779 b 436 989 675 910 579 989 b 142 735 290 989 142 888 b 225 546 142 661 164 611 b 72 296 125 483 72 390 b 422 -17 72 124 232 -17 b 703 110 529 -17 635 24 l 869 -39 z "},"*":{"ha":703,"x_min":0,"x_max":0,"o":"m 622 726 l 568 896 l 408 811 l 440 988 l 261 988 l 293 813 l 135 896 l 81 726 l 257 701 l 126 576 l 271 471 l 351 635 l 432 471 l 576 576 l 446 701 z "},",":{"ha":347,"x_min":0,"x_max":0,"o":"m 282 207 l 72 207 l -6 -175 l 182 -175 z "},"-":{"ha":621,"x_min":0,"x_max":0,"o":"m 507 321 l 507 485 l 114 485 l 114 321 z "},".":{"ha":347,"x_min":0,"x_max":0,"o":"m 279 0 l 279 207 l 67 207 l 67 0 z "},":":{"ha":347,"x_min":0,"x_max":0,"o":"m 279 524 l 279 731 l 67 731 l 67 524 z m 279 0 l 279 207 l 67 207 l 67 0 z "},";":{"ha":347,"x_min":0,"x_max":0,"o":"m 282 207 l 72 207 l -6 -175 l 182 -175 z m 276 524 l 276 731 l 65 731 l 65 524 z "},"?":{"ha":757,"x_min":0,"x_max":0,"o":"m 472 332 l 472 442 b 674 724 581 499 674 558 b 381 989 674 850 563 989 b 85 701 213 989 85 875 l 85 678 l 278 678 l 278 707 b 381 825 278 781 315 825 b 482 719 447 825 482 775 b 271 543 482 615 382 581 l 271 332 z m 478 0 l 478 207 l 265 207 l 265 0 z "},"!":{"ha":454,"x_min":0,"x_max":0,"o":"m 336 972 l 118 972 l 118 799 l 133 332 l 321 332 l 336 799 z m 333 0 l 333 207 l 121 207 l 121 0 z "},"¡":{"ha":454,"x_min":0,"x_max":0,"o":"m 118 -242 l 336 -242 l 336 -68 l 321 399 l 133 399 l 118 -68 z m 121 731 l 121 524 l 333 524 l 333 731 z "},"¿":{"ha":757,"x_min":0,"x_max":0,"o":"m 285 399 l 285 289 b 83 7 176 232 83 172 b 376 -258 83 -119 194 -258 b 672 29 544 -258 672 -144 l 672 53 l 479 53 l 479 24 b 376 -94 479 -50 442 -94 b 275 11 310 -94 275 -44 b 486 188 275 115 375 150 l 486 399 z m 279 731 l 279 524 l 492 524 l 492 731 z "},"@":{"ha":1108,"x_min":0,"x_max":0,"o":"m 769 -126 l 697 -7 b 546 -43 647 -32 592 -43 b 224 297 365 -43 224 107 b 554 638 224 493 368 638 b 885 308 771 638 885 515 b 810 178 885 251 858 178 b 763 300 772 178 763 219 l 763 508 l 624 508 l 624 468 b 510 517 596 500 550 517 b 321 290 388 517 321 396 b 513 67 321 172 396 67 b 658 131 574 67 631 90 b 811 38 692 65 750 38 b 1046 322 964 38 1046 168 b 553 776 1046 603 822 776 b 63 296 286 776 63 572 b 544 -182 63 35 275 -182 b 769 -126 617 -182 690 -165 z m 624 256 b 539 190 607 213 574 190 b 460 289 486 190 460 242 b 542 396 460 339 483 396 b 624 354 569 396 599 382 z "},"A":{"ha":957,"x_min":0,"x_max":0,"o":"m 940 0 l 575 972 l 414 972 l 17 0 l 238 0 l 303 181 l 649 181 l 711 0 z m 479 669 l 481 669 l 593 343 l 361 343 z "},"B":{"ha":857,"x_min":0,"x_max":0,"o":"m 108 972 l 108 0 l 353 0 b 608 39 440 0 535 8 b 782 289 714 83 782 174 b 619 510 782 392 718 476 b 742 697 700 546 742 617 b 628 910 742 785 703 861 b 364 972 556 957 457 972 z m 307 415 l 418 415 b 569 285 517 415 569 365 b 514 188 569 235 549 206 b 353 167 472 167 411 167 l 307 167 z m 307 806 l 346 806 b 501 781 408 806 464 806 b 543 690 525 763 543 735 b 363 576 543 614 476 576 l 307 576 z "},"C":{"ha":938,"x_min":0,"x_max":0,"o":"m 281 486 b 586 815 281 671 410 815 b 789 740 661 815 731 785 l 885 894 b 586 989 789 954 697 989 b 68 486 300 989 68 771 b 578 -17 68 189 286 -17 b 904 93 697 -17 810 21 l 793 238 b 586 157 733 186 660 157 b 281 486 396 157 281 292 z "},"D":{"ha":993,"x_min":0,"x_max":0,"o":"m 108 0 l 379 0 b 925 490 646 0 925 131 b 392 972 925 842 643 972 l 108 972 z m 307 804 l 368 804 b 713 478 586 804 713 692 b 329 168 713 249 557 168 l 307 168 z "},"E":{"ha":806,"x_min":0,"x_max":0,"o":"m 732 0 l 732 168 l 307 168 l 307 417 l 732 417 l 732 585 l 307 585 l 307 804 l 732 804 l 732 972 l 108 972 l 108 0 z "},"F":{"ha":699,"x_min":0,"x_max":0,"o":"m 647 392 l 647 560 l 307 560 l 307 804 l 647 804 l 647 972 l 108 972 l 108 0 l 307 0 l 307 392 z "},"G":{"ha":1101,"x_min":0,"x_max":0,"o":"m 811 393 l 811 247 b 586 157 750 189 665 157 b 281 486 401 157 281 292 b 586 815 281 671 410 815 b 857 678 697 815 789 757 l 994 797 b 586 989 888 921 750 989 b 68 486 300 989 68 771 b 586 -17 68 188 292 -17 b 1010 182 754 -17 908 46 l 1010 561 l 578 561 l 578 393 z "},"H":{"ha":1026,"x_min":0,"x_max":0,"o":"m 918 0 l 918 972 l 719 972 l 719 585 l 307 585 l 307 972 l 108 972 l 108 0 l 307 0 l 307 417 l 719 417 l 719 0 z "},"I":{"ha":415,"x_min":0,"x_max":0,"o":"m 307 0 l 307 972 l 108 972 l 108 0 z "},"J":{"ha":472,"x_min":0,"x_max":0,"o":"m 376 972 l 178 972 l 178 282 b 164 186 178 242 176 208 b 97 157 153 168 133 157 b 1 185 61 157 33 167 l -61 28 b 121 -17 -3 -1 71 -17 b 314 49 211 -17 274 6 b 376 258 358 96 376 167 z "},"K":{"ha":889,"x_min":0,"x_max":0,"o":"m 875 972 l 635 972 l 307 574 l 307 972 l 108 972 l 108 0 l 307 0 l 307 297 l 411 421 l 651 0 l 883 0 l 546 579 z "},"L":{"ha":711,"x_min":0,"x_max":0,"o":"m 706 0 l 706 168 l 307 168 l 307 972 l 108 972 l 108 0 z "},"M":{"ha":1328,"x_min":0,"x_max":0,"o":"m 1022 710 l 1022 0 l 1221 0 l 1221 972 l 933 972 l 663 294 l 401 972 l 108 972 l 108 0 l 307 0 l 307 713 l 590 0 l 732 0 z "},"N":{"ha":1039,"x_min":0,"x_max":0,"o":"m 932 0 l 932 972 l 733 972 l 733 363 l 283 972 l 108 972 l 108 0 l 307 0 l 307 608 l 753 0 z "},"O":{"ha":1154,"x_min":0,"x_max":0,"o":"m 874 486 b 578 157 874 301 749 157 b 281 486 406 157 281 301 b 578 815 281 671 406 815 b 874 486 749 815 874 671 z m 1086 486 b 578 989 1086 764 865 989 b 68 486 289 989 68 764 b 578 -17 68 208 289 -17 b 1086 486 865 -17 1086 208 z "},"P":{"ha":817,"x_min":0,"x_max":0,"o":"m 108 972 l 108 0 l 307 0 l 307 367 l 418 367 b 782 671 585 367 782 447 b 418 972 782 892 583 972 z m 307 804 l 413 804 b 571 667 507 804 571 753 b 386 535 571 569 492 535 l 307 535 z "},"Q":{"ha":1154,"x_min":0,"x_max":0,"o":"m 1076 22 l 953 144 b 1086 486 1036 233 1086 354 b 578 989 1086 764 865 989 b 68 486 289 989 68 764 b 578 -17 68 208 289 -17 b 817 42 665 -17 746 4 l 957 -97 z m 682 414 l 561 296 l 681 178 b 578 157 650 164 614 157 b 281 486 406 157 281 301 b 578 815 281 671 406 815 b 874 486 749 815 874 671 b 813 283 874 408 851 339 z "},"R":{"ha":881,"x_min":0,"x_max":0,"o":"m 108 972 l 108 0 l 307 0 l 307 388 l 342 388 l 608 0 l 858 0 b 561 410 792 90 647 289 b 772 681 669 446 772 529 b 417 972 772 892 574 972 z m 307 804 l 411 804 b 560 676 500 804 560 753 b 385 556 560 592 485 556 l 307 556 z "},"S":{"ha":846,"x_min":0,"x_max":0,"o":"m 650 732 l 764 874 b 442 989 665 949 567 989 b 124 717 281 989 124 901 b 392 428 124 531 265 475 b 579 276 490 392 579 360 b 425 153 579 190 503 153 b 183 275 324 153 263 199 l 51 146 b 424 -17 157 40 274 -17 b 792 285 593 -17 792 74 b 489 600 792 489 626 553 b 322 722 414 626 322 647 b 449 819 322 786 382 819 b 650 732 524 819 596 778 z "},"T":{"ha":682,"x_min":0,"x_max":0,"o":"m 671 804 l 671 972 l 11 972 l 11 804 l 242 804 l 242 0 l 440 0 l 440 804 z "},"U":{"ha":994,"x_min":0,"x_max":0,"o":"m 889 972 l 690 972 l 690 432 b 497 157 690 246 615 157 b 304 432 379 157 304 246 l 304 972 l 106 972 l 106 458 b 494 -17 106 153 222 -17 b 889 458 772 -17 889 153 z "},"V":{"ha":936,"x_min":0,"x_max":0,"o":"m 929 972 l 710 972 l 468 304 l 467 304 l 236 972 l 6 972 l 371 0 l 533 0 z "},"W":{"ha":1311,"x_min":0,"x_max":0,"o":"m 750 972 l 564 972 l 390 350 l 388 350 l 228 972 l 6 972 l 278 0 l 468 0 l 650 639 l 653 639 l 829 0 l 1026 0 l 1306 972 l 1083 972 l 919 350 l 917 350 z "},"X":{"ha":983,"x_min":0,"x_max":0,"o":"m 972 972 l 724 972 l 497 653 l 274 972 l 13 972 l 360 489 l 1 0 l 251 0 l 486 332 l 721 0 l 982 0 l 622 497 z "},"Y":{"ha":844,"x_min":0,"x_max":0,"o":"m 514 0 l 514 401 l 839 972 l 607 972 l 424 622 l 421 622 l 253 972 l 6 972 l 315 407 l 315 0 z "},"Z":{"ha":781,"x_min":0,"x_max":0,"o":"m 725 871 l 725 972 l 57 972 l 57 804 l 456 804 l 46 106 l 46 0 l 758 0 l 758 168 l 314 168 z "},"a":{"ha":799,"x_min":0,"x_max":0,"o":"m 710 0 l 710 439 b 408 747 710 629 611 747 b 94 672 300 747 188 718 l 147 531 b 368 594 211 564 285 594 b 513 447 475 594 513 539 l 513 436 b 381 451 467 446 421 451 b 63 215 229 451 63 394 b 325 -17 63 65 189 -17 b 524 63 403 -17 476 4 l 539 0 z m 513 183 b 367 121 471 146 424 121 b 256 218 308 121 256 154 b 413 331 256 304 340 331 b 513 318 443 331 475 326 z "},"b":{"ha":894,"x_min":0,"x_max":0,"o":"m 96 1042 l 96 0 l 267 0 l 281 89 b 507 -17 333 10 431 -17 b 849 363 704 -17 849 157 b 508 747 849 575 703 747 b 293 654 438 747 346 722 l 293 1042 z m 293 481 b 465 578 336 553 403 578 b 647 368 579 578 647 476 b 463 153 647 265 589 153 b 293 232 400 153 342 174 z "},"c":{"ha":710,"x_min":0,"x_max":0,"o":"m 574 208 b 433 153 532 168 488 153 b 247 365 329 153 247 243 b 436 578 247 482 325 578 b 578 519 493 578 538 557 l 679 657 b 422 747 607 717 522 747 b 46 365 200 747 46 578 b 417 -17 46 139 201 -17 b 679 74 521 -17 607 10 z "},"d":{"ha":894,"x_min":0,"x_max":0,"o":"m 799 0 l 799 1042 l 601 1042 l 601 660 b 389 747 546 722 458 747 b 46 368 190 747 46 574 b 386 -17 46 156 193 -17 b 611 90 461 -17 560 10 l 628 0 z m 601 249 b 429 153 558 176 492 153 b 247 363 317 153 247 256 b 432 578 247 465 306 578 b 601 499 493 578 551 557 z "},"e":{"ha":817,"x_min":0,"x_max":0,"o":"m 760 317 b 769 410 765 346 769 381 b 417 747 769 604 619 747 b 46 357 207 747 46 578 b 415 -17 46 138 194 -17 b 749 163 572 -17 665 42 l 619 250 b 429 142 572 181 524 142 b 246 317 325 142 260 217 z m 256 451 b 422 593 276 533 328 593 b 568 451 503 593 564 539 z "},"f":{"ha":497,"x_min":0,"x_max":0,"o":"m 557 1017 b 375 1058 500 1043 438 1058 b 169 983 275 1058 210 1033 b 117 789 132 938 117 872 l 117 731 l 38 731 l 38 567 l 117 567 l 117 0 l 314 0 l 314 567 l 496 567 l 496 731 l 314 731 l 314 778 b 333 867 314 814 318 846 b 394 889 344 881 363 889 b 496 865 433 889 464 882 z "},"g":{"ha":889,"x_min":0,"x_max":0,"o":"m 799 731 l 628 731 l 611 644 b 389 747 558 721 463 747 b 46 376 190 747 46 581 b 386 0 46 165 193 0 b 601 93 457 0 547 24 l 601 26 b 424 -146 601 -90 526 -146 b 165 -53 351 -146 249 -115 l 93 -215 b 431 -315 196 -283 318 -315 b 753 -156 564 -315 689 -267 b 799 39 783 -104 799 -40 z m 601 265 b 429 169 558 193 490 169 b 247 371 317 169 247 264 b 432 578 247 472 306 578 b 601 499 493 578 551 557 z "},"h":{"ha":858,"x_min":0,"x_max":0,"o":"m 293 1042 l 96 1042 l 96 0 l 293 0 l 293 485 b 451 578 329 544 393 578 b 549 526 494 578 531 563 b 571 369 569 485 571 424 l 571 0 l 768 0 l 768 379 b 703 651 768 483 760 578 b 508 747 657 710 588 747 b 293 644 433 747 351 715 z "},"i":{"ha":389,"x_min":0,"x_max":0,"o":"m 293 0 l 293 731 l 96 731 l 96 0 z m 293 832 l 293 1000 l 96 1000 l 96 832 z "},"j":{"ha":397,"x_min":0,"x_max":0,"o":"m 301 832 l 301 1000 l 104 1000 l 104 832 z m 301 731 l 104 731 l 104 -35 b 31 -146 104 -96 99 -146 b -54 -128 -1 -146 -29 -139 l -107 -285 b 51 -315 -58 -304 -6 -315 b 254 -232 151 -315 217 -285 b 301 -51 288 -187 301 -128 z "},"k":{"ha":771,"x_min":0,"x_max":0,"o":"m 774 0 l 496 425 l 757 731 l 532 731 l 296 433 l 293 433 l 293 1042 l 96 1042 l 96 0 l 293 0 l 293 189 l 364 271 l 532 0 z "},"l":{"ha":389,"x_min":0,"x_max":0,"o":"m 293 1042 l 96 1042 l 96 0 l 293 0 z "},"m":{"ha":1289,"x_min":0,"x_max":0,"o":"m 1199 0 l 1199 379 b 1133 653 1199 485 1190 579 b 942 747 1088 711 1019 747 b 699 625 863 747 767 722 b 492 747 661 699 575 747 b 281 642 419 747 339 715 l 267 731 l 96 731 l 96 0 l 293 0 l 293 506 b 433 578 329 547 385 578 b 526 528 475 578 508 563 b 549 369 549 486 549 424 l 549 0 l 746 0 l 746 379 b 739 494 746 419 743 458 b 882 578 775 547 831 578 b 979 526 926 578 961 563 b 1001 369 1000 485 1001 424 l 1001 0 z "},"n":{"ha":858,"x_min":0,"x_max":0,"o":"m 96 731 l 96 0 l 293 0 l 293 485 b 451 578 329 544 393 578 b 549 526 494 578 531 563 b 571 369 569 485 571 424 l 571 0 l 768 0 l 768 379 b 703 651 768 483 760 578 b 508 747 657 710 588 747 b 282 631 428 747 340 713 l 267 731 z "},"o":{"ha":857,"x_min":0,"x_max":0,"o":"m 429 747 b 46 365 206 747 46 581 b 429 -17 46 150 206 -17 b 811 365 651 -17 811 150 b 429 747 811 581 651 747 z m 610 365 b 429 153 610 246 538 153 b 247 365 321 153 247 246 b 429 578 247 485 321 578 b 610 365 538 578 610 485 z "},"p":{"ha":894,"x_min":0,"x_max":0,"o":"m 96 731 l 96 -347 l 293 -347 l 293 71 b 507 -17 349 7 436 -17 b 849 363 704 -17 849 157 b 508 747 849 575 703 747 b 282 640 433 747 335 719 l 267 731 z m 293 481 b 465 578 336 553 403 578 b 647 368 579 578 647 476 b 463 153 647 265 589 153 b 293 232 400 153 342 174 z "},"q":{"ha":894,"x_min":0,"x_max":0,"o":"m 799 -347 l 799 731 l 628 731 l 611 644 b 389 747 558 721 463 747 b 46 368 190 747 46 574 b 386 -17 46 156 193 -17 b 601 76 457 -17 547 7 l 601 -347 z m 601 499 l 601 249 b 429 153 558 176 492 153 b 247 363 317 153 247 256 b 432 578 247 465 306 578 b 601 499 493 578 551 557 z "},"r":{"ha":519,"x_min":0,"x_max":0,"o":"m 267 731 l 96 731 l 96 0 l 293 0 l 293 494 b 431 575 322 543 374 575 b 500 558 456 575 479 569 l 547 731 b 453 747 521 740 489 747 b 282 633 381 747 324 701 z "},"s":{"ha":668,"x_min":0,"x_max":0,"o":"m 601 651 b 349 747 533 715 446 747 b 88 524 215 747 88 672 b 271 308 88 396 183 346 b 410 203 343 276 410 254 b 317 139 410 158 357 139 b 144 225 246 139 200 171 l 32 108 b 326 -17 113 28 213 -17 b 607 218 468 -17 607 57 b 393 443 607 357 488 404 b 278 538 332 468 278 492 b 349 593 278 572 311 593 b 493 532 404 593 456 565 z "},"t":{"ha":525,"x_min":0,"x_max":0,"o":"m 488 567 l 488 731 l 301 731 l 301 892 l 135 892 l 104 731 l 17 731 l 17 567 l 104 567 l 104 263 b 118 140 104 219 107 176 b 335 -17 144 46 221 -17 b 508 26 392 -17 461 -1 l 447 172 b 368 151 422 160 399 151 b 304 221 326 151 310 178 b 301 283 301 242 301 261 l 301 567 z "},"u":{"ha":858,"x_min":0,"x_max":0,"o":"m 763 0 l 763 731 l 565 731 l 565 246 b 407 153 529 186 465 153 b 310 204 364 153 328 168 b 288 361 289 246 288 307 l 288 731 l 90 731 l 90 351 b 156 79 90 247 99 153 b 350 -17 201 21 271 -17 b 576 100 431 -17 518 18 l 592 0 z "},"v":{"ha":749,"x_min":0,"x_max":0,"o":"m 524 731 l 375 281 l 372 281 l 225 731 l 7 731 l 282 0 l 443 0 l 743 731 z "},"w":{"ha":1079,"x_min":0,"x_max":0,"o":"m 628 731 l 454 731 l 328 278 l 325 278 l 217 731 l 7 731 l 207 0 l 419 0 l 536 418 l 539 418 l 654 0 l 863 0 l 1072 731 l 867 731 l 751 279 l 747 279 z "},"x":{"ha":829,"x_min":0,"x_max":0,"o":"m 822 731 l 575 731 l 428 519 l 283 731 l 32 731 l 296 372 l 7 0 l 256 0 l 411 219 l 561 0 l 814 0 l 540 367 z "},"y":{"ha":738,"x_min":0,"x_max":0,"o":"m 4 731 l 263 43 l 146 -267 l 322 -335 l 733 731 l 519 731 l 369 296 l 367 296 l 219 731 z "},"z":{"ha":671,"x_min":0,"x_max":0,"o":"m 69 92 l 69 0 l 631 0 l 631 164 l 326 164 l 607 640 l 607 731 l 54 731 l 54 567 l 347 567 z "},"[":{"ha":458,"x_min":0,"x_max":0,"o":"m 446 -224 l 446 -67 l 278 -67 l 278 881 l 446 881 l 446 1038 l 96 1038 l 96 -224 z "},"]":{"ha":460,"x_min":0,"x_max":0,"o":"m 363 -224 l 363 1038 l 13 1038 l 13 881 l 181 881 l 181 -67 l 13 -67 l 13 -224 z "},"(":{"ha":514,"x_min":0,"x_max":0,"o":"m 515 -106 b 236 426 365 -10 236 156 b 517 957 236 697 369 861 l 444 1096 b 44 426 219 956 44 753 b 447 -246 44 99 222 -108 z "},")":{"ha":514,"x_min":0,"x_max":0,"o":"m 69 1096 l -3 957 b 278 426 144 861 278 697 b -1 -106 278 156 149 -10 l 67 -246 b 469 426 292 -108 469 99 b 69 1096 469 753 294 956 z "},"{":{"ha":478,"x_min":0,"x_max":0,"o":"m 10 347 b 115 193 83 333 115 268 l 115 50 b 390 -239 115 -118 225 -239 b 465 -233 403 -239 415 -239 l 465 -82 l 414 -82 b 297 85 324 -82 297 -7 l 297 213 b 210 422 297 296 268 379 b 297 631 269 464 297 546 l 297 732 b 411 897 297 822 324 897 l 465 897 l 465 1049 b 390 1053 415 1053 403 1053 b 115 765 225 1053 115 933 l 115 667 b 13 496 115 583 88 514 z "},"}":{"ha":478,"x_min":0,"x_max":0,"o":"m 468 496 b 363 650 394 510 363 575 l 363 764 b 88 1053 363 932 253 1053 b 13 1047 75 1053 63 1053 l 13 896 l 64 896 b 181 729 154 896 181 821 l 181 631 b 268 421 181 547 210 464 b 181 213 208 379 181 297 l 181 82 b 67 -83 181 -8 154 -83 l 13 -83 l 13 -235 b 88 -239 63 -239 75 -239 b 363 49 253 -239 363 -119 l 363 176 b 465 347 363 260 390 329 z "},"\\":{"ha":563,"x_min":0,"x_max":0,"o":"m 563 -19 l 160 1067 l 0 1004 l 403 -83 z "},"/":{"ha":563,"x_min":0,"x_max":0,"o":"m 563 1004 l 403 1067 l 0 -19 l 160 -83 z "},"¦":{"ha":450,"x_min":0,"x_max":0,"o":"m 314 -268 l 314 283 l 136 283 l 136 -268 z m 314 490 l 314 1042 l 136 1042 l 136 490 z "},"|":{"ha":450,"x_min":0,"x_max":0,"o":"m 314 -236 l 314 1192 l 136 1192 l 136 -236 z "},"§":{"ha":764,"x_min":0,"x_max":0,"o":"m 657 889 b 376 988 579 957 483 988 b 99 751 233 988 99 903 b 174 593 99 679 129 631 b 56 392 96 550 56 478 b 263 172 56 258 158 207 b 485 46 372 136 485 119 b 365 -33 485 -11 419 -33 b 153 61 286 -33 221 -6 l 36 -65 b 374 -194 131 -150 253 -194 b 679 61 535 -194 679 -108 b 604 215 679 133 649 181 b 721 408 688 274 721 339 b 479 649 721 556 594 610 b 286 765 379 682 286 704 b 378 832 286 810 333 832 b 542 769 440 832 497 808 z m 446 293 b 393 310 428 299 410 304 b 251 413 310 336 251 360 b 326 513 251 453 272 492 b 525 394 438 474 525 451 b 446 293 525 351 494 314 z "},"©":{"ha":1110,"x_min":0,"x_max":0,"o":"m 71 463 b 563 -17 71 199 294 -17 b 1054 463 831 -17 1054 199 b 563 942 1054 726 831 942 b 71 463 294 942 71 726 z m 221 463 b 563 807 221 651 374 807 b 904 463 751 807 904 651 b 563 118 904 274 751 118 b 221 463 374 118 221 274 z m 732 658 b 575 713 681 694 635 713 b 314 460 429 713 314 603 b 575 207 314 307 425 207 b 738 271 639 207 693 231 l 665 361 b 575 325 636 338 606 325 b 453 460 493 325 453 378 b 575 593 453 533 501 593 b 663 563 606 593 635 585 z "},"®":{"ha":799,"x_min":0,"x_max":0,"o":"m 60 660 b 400 325 60 475 213 325 b 740 660 588 325 740 475 b 400 996 740 846 588 996 b 60 660 213 996 60 846 z m 171 660 b 400 894 171 790 272 894 b 629 660 528 894 629 790 b 400 426 629 531 528 426 b 171 660 272 426 171 531 z m 556 501 l 458 632 b 518 724 493 647 518 679 b 383 826 518 796 453 826 l 281 826 l 281 501 l 371 501 l 371 607 b 376 607 372 607 375 607 l 444 501 z m 371 753 b 426 719 414 753 426 746 b 371 688 426 694 408 688 z "},"™":{"ha":1365,"x_min":0,"x_max":0,"o":"m 504 854 l 504 972 l 92 972 l 92 854 l 226 854 l 226 381 l 369 381 l 369 854 z m 1133 792 l 1133 381 l 1275 381 l 1275 972 l 1067 972 l 924 614 l 786 972 l 574 972 l 574 381 l 714 381 l 714 794 l 879 381 l 965 381 z "},"ª":{"ha":540,"x_min":0,"x_max":0,"o":"m 64 968 l 100 864 b 239 908 136 888 192 908 b 333 826 296 908 331 882 l 333 821 b 253 828 304 825 278 828 b 43 672 150 828 43 790 b 213 525 43 575 129 525 b 343 574 263 525 310 538 l 351 536 l 476 536 l 476 817 b 268 1019 476 957 390 1019 b 64 968 197 1019 124 997 z m 333 739 l 333 654 b 256 625 313 636 285 625 b 190 679 221 625 190 640 b 283 744 190 728 238 744 b 333 739 297 744 314 743 z "},"º":{"ha":574,"x_min":0,"x_max":0,"o":"m 286 1019 b 32 772 136 1019 32 911 b 286 525 32 633 136 525 b 540 772 436 525 540 633 b 286 1019 540 911 436 1019 z m 286 907 b 393 772 351 907 393 850 b 286 638 393 694 351 638 b 179 772 221 638 179 694 b 286 907 179 850 221 907 z "},"«":{"ha":818,"x_min":0,"x_max":0,"o":"m 418 451 l 418 292 l 642 57 l 750 204 l 574 371 l 750 539 l 642 685 z m 68 451 l 68 292 l 292 57 l 399 204 l 224 371 l 399 539 l 292 685 z "},"»":{"ha":818,"x_min":0,"x_max":0,"o":"m 175 681 l 68 538 l 243 371 l 68 204 l 175 61 l 399 290 l 399 451 z m 526 681 l 418 538 l 594 371 l 418 204 l 526 61 l 750 290 l 750 451 z "},"‹":{"ha":468,"x_min":0,"x_max":0,"o":"m 68 451 l 68 292 l 292 57 l 399 204 l 224 371 l 399 539 l 292 685 z "},"›":{"ha":468,"x_min":0,"x_max":0,"o":"m 175 685 l 68 538 l 243 371 l 68 204 l 175 57 l 399 290 l 399 451 z "},"‘":{"ha":425,"x_min":0,"x_max":0,"o":"m 357 972 l 169 972 l 68 589 l 278 589 z "},"’":{"ha":425,"x_min":0,"x_max":0,"o":"m 68 589 l 256 589 l 357 972 l 147 972 z "},"‚":{"ha":425,"x_min":0,"x_max":0,"o":"m 68 -176 l 256 -176 l 357 207 l 147 207 z "},"“":{"ha":793,"x_min":0,"x_max":0,"o":"m 381 972 l 193 972 l 92 589 l 301 589 z m 701 972 l 514 972 l 413 589 l 622 589 z "},"”":{"ha":793,"x_min":0,"x_max":0,"o":"m 413 589 l 600 589 l 701 972 l 492 972 z m 92 589 l 279 589 l 381 972 l 171 972 z "},"„":{"ha":793,"x_min":0,"x_max":0,"o":"m 413 -176 l 600 -176 l 701 207 l 492 207 z m 92 -176 l 279 -176 l 381 207 l 171 207 z "},"†":{"ha":590,"x_min":0,"x_max":0,"o":"m 215 192 l 375 192 l 375 415 l 371 619 l 453 617 l 510 617 l 510 758 l 453 758 l 371 754 l 375 906 l 375 972 l 215 972 l 215 906 l 219 754 l 138 758 l 81 758 l 81 617 l 138 617 l 219 619 l 215 415 z "},"‡":{"ha":590,"x_min":0,"x_max":0,"o":"m 81 601 l 81 461 l 218 464 l 215 390 l 215 192 l 375 192 l 375 390 l 372 464 l 510 461 l 510 601 l 372 599 l 372 626 l 372 668 l 372 704 l 510 701 l 510 842 l 372 839 l 375 972 l 215 972 l 218 839 l 81 842 l 81 701 l 218 704 l 218 668 l 218 626 l 218 599 z "},"•":{"ha":493,"x_min":0,"x_max":0,"o":"m 49 401 b 247 203 49 292 138 203 b 444 401 356 203 444 292 b 247 600 444 511 356 600 b 49 401 138 600 49 511 z "},"·":{"ha":347,"x_min":0,"x_max":0,"o":"m 279 340 l 279 547 l 67 547 l 67 340 z "},"…":{"ha":1042,"x_min":0,"x_max":0,"o":"m 288 0 l 288 207 l 76 207 l 76 0 z m 964 0 l 964 207 l 753 207 l 753 0 z m 626 0 l 626 207 l 414 207 l 414 0 z "},"¶":{"ha":764,"x_min":0,"x_max":0,"o":"m 711 -243 l 711 972 l 543 972 l 543 -243 z m 478 -243 l 478 972 l 400 972 b 39 671 235 972 39 892 b 311 375 39 486 171 400 l 311 -243 z m 311 803 l 311 539 b 204 671 256 542 204 589 b 311 803 204 753 256 800 z "},"­":{"ha":621,"x_min":0,"x_max":0,"o":"m 507 321 l 507 485 l 114 485 l 114 321 z "},"–":{"ha":833,"x_min":0,"x_max":0,"o":"m 764 360 l 764 525 l 69 525 l 69 360 z "},"—":{"ha":1250,"x_min":0,"x_max":0,"o":"m 1181 360 l 1181 525 l 69 525 l 69 360 z "},"$":{"ha":764,"x_min":0,"x_max":0,"o":"m 13 140 b 329 -14 107 49 204 -6 l 329 -147 l 443 -147 l 443 -8 b 721 279 592 15 721 108 b 479 551 721 443 596 507 b 267 681 371 592 267 615 b 383 778 267 746 328 778 b 583 696 463 778 526 742 l 693 831 b 453 933 615 886 539 921 l 453 1069 l 338 1069 l 338 936 b 76 672 189 924 76 833 b 304 419 76 518 192 460 b 519 267 413 379 519 353 b 357 147 519 189 461 147 b 138 261 265 147 194 207 z "},"€":{"ha":903,"x_min":0,"x_max":0,"o":"m 19 503 l 111 503 b 108 461 110 489 108 475 b 111 415 108 444 110 431 l 19 415 l 19 286 l 136 286 b 581 -17 208 76 407 -17 b 899 89 699 -17 810 22 l 797 219 b 593 142 742 169 665 142 b 338 286 500 142 393 178 l 669 286 l 669 415 l 301 415 b 299 461 299 429 299 444 b 301 503 299 475 299 489 l 669 503 l 669 635 l 342 635 b 593 781 389 724 475 781 b 794 707 668 781 738 753 l 879 850 b 586 939 789 906 689 939 b 138 635 418 939 213 843 l 19 635 z "},"¢":{"ha":764,"x_min":0,"x_max":0,"o":"m 604 263 b 464 207 563 222 519 207 b 278 419 360 207 278 299 b 468 633 278 536 357 633 b 610 574 524 633 568 611 l 710 713 b 511 797 653 758 586 788 l 511 924 l 394 924 l 394 797 b 78 419 204 769 78 613 b 394 40 78 213 207 65 l 394 -83 l 511 -83 l 511 42 b 710 128 588 51 653 78 z "},"£":{"ha":764,"x_min":0,"x_max":0,"o":"m 706 0 l 706 168 l 368 168 l 368 414 l 546 414 l 546 581 l 368 581 l 368 606 b 499 772 368 713 418 772 b 638 722 544 772 596 756 l 714 872 b 476 939 642 915 554 939 b 175 621 301 939 175 806 l 175 581 l 100 581 l 100 414 l 175 414 l 175 168 l 100 168 l 100 0 z "},"¥":{"ha":764,"x_min":0,"x_max":0,"o":"m 57 357 l 282 357 l 282 279 l 57 279 l 57 150 l 282 150 l 282 0 l 475 0 l 475 150 l 700 150 l 700 279 l 475 279 l 475 357 l 700 357 l 700 488 l 525 488 l 774 924 l 553 924 l 389 606 l 386 606 l 211 924 l -11 924 l 233 488 l 57 488 z "},"ƒ":{"ha":764,"x_min":0,"x_max":0,"o":"m 592 579 l 436 579 l 446 668 b 526 775 453 728 464 775 b 651 735 572 775 613 760 l 715 889 b 506 939 642 924 571 939 b 254 699 365 939 272 853 l 240 579 l 121 579 l 121 414 l 222 414 l 175 -6 b 100 -112 168 -65 160 -112 b 29 -100 75 -112 51 -108 l -10 -258 b 122 -278 36 -271 81 -278 b 367 -36 257 -278 349 -192 l 417 414 l 592 414 z "},"№":{"ha":1588,"x_min":0,"x_max":0,"o":"m 932 0 l 932 972 l 733 972 l 733 363 l 283 972 l 108 972 l 108 0 l 307 0 l 307 608 l 753 0 z m 1300 1011 b 1046 764 1150 1011 1046 903 b 1300 517 1046 625 1150 517 b 1554 764 1450 517 1554 625 b 1300 1011 1554 903 1450 1011 z m 1300 899 b 1407 764 1365 899 1407 842 b 1300 629 1407 686 1365 629 b 1193 764 1235 629 1193 686 b 1300 899 1193 842 1235 899 z "},"¤":{"ha":764,"x_min":0,"x_max":0,"o":"m 78 453 b 118 301 78 397 92 346 l 38 222 l 150 110 l 229 189 b 382 149 274 163 326 149 b 533 190 436 149 489 163 l 614 110 l 726 222 l 646 301 b 686 453 671 346 686 397 b 644 604 686 507 671 558 l 726 685 l 614 797 l 532 717 b 382 757 488 742 436 757 b 232 717 326 757 275 742 l 150 797 l 38 685 l 118 604 b 78 453 93 558 78 507 z m 225 453 b 382 610 225 539 294 610 b 539 453 468 610 539 539 b 382 294 539 365 468 294 b 225 453 294 294 225 365 z "},"À":{"ha":957,"x_min":0,"x_max":0,"o":"m 940 0 l 575 972 l 414 972 l 17 0 l 238 0 l 303 181 l 649 181 l 711 0 z m 479 669 l 481 669 l 593 343 l 361 343 z m 494 1018 l 583 1131 l 344 1331 l 242 1196 z "},"Á":{"ha":957,"x_min":0,"x_max":0,"o":"m 940 0 l 575 972 l 414 972 l 17 0 l 238 0 l 303 181 l 649 181 l 711 0 z m 479 669 l 481 669 l 593 343 l 361 343 z m 697 1196 l 594 1331 l 356 1131 l 444 1018 z "},"Â":{"ha":957,"x_min":0,"x_max":0,"o":"m 940 0 l 575 972 l 414 972 l 17 0 l 238 0 l 303 181 l 649 181 l 711 0 z m 479 669 l 481 669 l 593 343 l 361 343 z m 388 1310 l 225 1103 l 338 1019 l 493 1194 l 647 1019 l 761 1103 l 604 1310 z "},"Ã":{"ha":957,"x_min":0,"x_max":0,"o":"m 940 0 l 575 972 l 414 972 l 17 0 l 238 0 l 303 181 l 649 181 l 711 0 z m 479 669 l 481 669 l 593 343 l 361 343 z m 647 1219 b 649 1210 649 1217 649 1213 b 614 1178 649 1189 632 1178 b 413 1249 572 1178 501 1249 b 251 1106 315 1249 251 1190 b 261 1051 251 1088 256 1069 l 374 1064 b 372 1074 372 1067 372 1071 b 407 1106 374 1094 389 1106 b 610 1035 451 1106 519 1035 b 769 1178 706 1035 769 1092 b 761 1232 769 1194 767 1214 z "},"Ä":{"ha":957,"x_min":0,"x_max":0,"o":"m 940 0 l 575 972 l 414 972 l 17 0 l 238 0 l 303 181 l 649 181 l 711 0 z m 479 669 l 481 669 l 593 343 l 361 343 z m 406 1058 l 406 1225 l 199 1225 l 199 1058 z m 790 1058 l 790 1225 l 583 1225 l 583 1058 z "},"Å":{"ha":957,"x_min":0,"x_max":0,"o":"m 940 0 l 575 972 l 414 972 l 17 0 l 238 0 l 303 181 l 649 181 l 711 0 z m 479 669 l 481 669 l 593 343 l 361 343 z m 496 1310 b 339 1153 408 1310 339 1240 b 496 996 339 1065 408 996 b 653 1153 583 996 653 1065 b 496 1310 653 1240 583 1310 z m 496 1217 b 560 1153 532 1217 560 1189 b 496 1089 560 1117 532 1089 b 432 1153 460 1089 432 1117 b 496 1217 432 1189 460 1217 z "},"Ǻ":{"ha":957,"x_min":0,"x_max":0,"o":"m 494 1289 b 344 1139 411 1289 344 1222 b 494 989 344 1056 411 989 b 644 1139 578 989 644 1056 b 494 1289 644 1222 578 1289 z m 494 1196 b 551 1139 526 1196 551 1171 b 494 1082 551 1106 526 1082 b 438 1139 461 1082 438 1106 b 494 1196 438 1171 461 1196 z m 706 1449 l 631 1568 l 375 1390 l 438 1294 z m 940 0 l 575 972 l 414 972 l 17 0 l 238 0 l 303 181 l 649 181 l 711 0 z m 479 669 l 481 669 l 593 343 l 361 343 z "},"Æ":{"ha":1401,"x_min":0,"x_max":0,"o":"m 1328 0 l 1328 168 l 904 168 l 904 417 l 1328 417 l 1328 585 l 904 585 l 904 804 l 1328 804 l 1328 972 l 704 972 l -12 0 l 239 0 l 361 182 l 704 182 l 704 0 z m 471 344 l 704 689 l 704 344 z "},"Ǽ":{"ha":1401,"x_min":0,"x_max":0,"o":"m 1328 0 l 1328 168 l 904 168 l 904 417 l 1328 417 l 1328 585 l 904 585 l 904 804 l 1328 804 l 1328 972 l 704 972 l -12 0 l 239 0 l 361 182 l 704 182 l 704 0 z m 471 344 l 704 689 l 704 344 z m 1065 1196 l 963 1331 l 724 1131 l 813 1018 z "},"Ç":{"ha":938,"x_min":0,"x_max":0,"o":"m 885 894 b 586 989 789 954 697 989 b 68 486 300 989 68 771 b 417 6 68 247 208 67 l 357 -126 l 458 -179 b 511 -151 472 -158 489 -151 b 561 -207 540 -151 561 -179 b 510 -258 561 -236 540 -258 b 454 -214 482 -258 464 -240 l 358 -260 b 518 -357 394 -325 447 -357 b 678 -204 610 -357 678 -282 b 549 -64 678 -122 618 -64 b 483 -85 524 -64 501 -71 l 482 -85 l 510 -12 b 578 -17 532 -15 554 -17 b 904 93 697 -17 810 21 l 793 238 b 586 157 733 186 660 157 b 281 486 396 157 281 292 b 586 815 281 671 410 815 b 789 740 661 815 731 785 z "},"È":{"ha":806,"x_min":0,"x_max":0,"o":"m 732 0 l 732 168 l 307 168 l 307 417 l 732 417 l 732 585 l 307 585 l 307 804 l 732 804 l 732 972 l 108 972 l 108 0 z m 485 1018 l 574 1131 l 335 1331 l 232 1196 z "},"É":{"ha":806,"x_min":0,"x_max":0,"o":"m 732 0 l 732 168 l 307 168 l 307 417 l 732 417 l 732 585 l 307 585 l 307 804 l 732 804 l 732 972 l 108 972 l 108 0 z m 650 1196 l 547 1331 l 308 1131 l 397 1018 z "},"Ê":{"ha":806,"x_min":0,"x_max":0,"o":"m 732 0 l 732 168 l 307 168 l 307 417 l 732 417 l 732 585 l 307 585 l 307 804 l 732 804 l 732 972 l 108 972 l 108 0 z m 322 1310 l 160 1103 l 272 1019 l 428 1194 l 582 1019 l 696 1103 l 539 1310 z "},"Ë":{"ha":806,"x_min":0,"x_max":0,"o":"m 368 1058 l 368 1225 l 163 1225 l 163 1058 z m 697 1058 l 697 1225 l 490 1225 l 490 1058 z m 732 0 l 732 168 l 307 168 l 307 417 l 732 417 l 732 585 l 307 585 l 307 804 l 732 804 l 732 972 l 108 972 l 108 0 z "},"Ì":{"ha":415,"x_min":0,"x_max":0,"o":"m 307 0 l 307 972 l 108 972 l 108 0 z m 210 1018 l 299 1131 l 60 1331 l -43 1196 z "},"Í":{"ha":415,"x_min":0,"x_max":0,"o":"m 307 0 l 307 972 l 108 972 l 108 0 z m 460 1196 l 357 1331 l 118 1131 l 207 1018 z "},"Î":{"ha":415,"x_min":0,"x_max":0,"o":"m 307 0 l 307 972 l 108 972 l 108 0 z m 101 1310 l -61 1103 l 51 1019 l 207 1194 l 361 1019 l 475 1103 l 318 1310 z "},"Ï":{"ha":415,"x_min":0,"x_max":0,"o":"m 150 1058 l 150 1225 l -57 1225 l -57 1058 z m 472 1058 l 472 1225 l 265 1225 l 265 1058 z m 307 0 l 307 972 l 108 972 l 108 0 z "},"Ð":{"ha":993,"x_min":0,"x_max":0,"o":"m 108 972 l 108 571 l 15 571 l 15 435 l 108 435 l 108 0 l 379 0 b 925 490 646 0 925 131 b 392 972 925 842 643 972 z m 307 804 l 368 804 b 713 478 586 804 713 692 b 329 168 713 249 557 168 l 307 168 l 307 435 l 464 435 l 464 571 l 307 571 z "},"Ñ":{"ha":1039,"x_min":0,"x_max":0,"o":"m 932 0 l 932 972 l 733 972 l 733 363 l 283 972 l 108 972 l 108 0 l 307 0 l 307 608 l 753 0 z m 674 1219 b 675 1210 675 1217 675 1213 b 640 1178 675 1189 658 1178 b 439 1249 599 1178 528 1249 b 278 1106 342 1249 278 1190 b 288 1051 278 1088 282 1069 l 400 1064 b 399 1074 399 1067 399 1071 b 433 1106 400 1094 415 1106 b 636 1035 478 1106 546 1035 b 796 1178 732 1035 796 1092 b 788 1232 796 1194 793 1214 z "},"Ò":{"ha":1154,"x_min":0,"x_max":0,"o":"m 874 486 b 578 157 874 301 749 157 b 281 486 406 157 281 301 b 578 815 281 671 406 815 b 874 486 749 815 874 671 z m 1086 486 b 578 989 1086 764 865 989 b 68 486 289 989 68 764 b 578 -17 68 208 289 -17 b 1086 486 865 -17 1086 208 z m 583 1018 l 672 1131 l 433 1331 l 331 1196 z "},"Ó":{"ha":1154,"x_min":0,"x_max":0,"o":"m 874 486 b 578 157 874 301 749 157 b 281 486 406 157 281 301 b 578 815 281 671 406 815 b 874 486 749 815 874 671 z m 1086 486 b 578 989 1086 764 865 989 b 68 486 289 989 68 764 b 578 -17 68 208 289 -17 b 1086 486 865 -17 1086 208 z m 829 1196 l 726 1331 l 488 1131 l 576 1018 z "},"Ô":{"ha":1154,"x_min":0,"x_max":0,"o":"m 874 486 b 578 157 874 301 749 157 b 281 486 406 157 281 301 b 578 815 281 671 406 815 b 874 486 749 815 874 671 z m 1086 486 b 578 989 1086 764 865 989 b 68 486 289 989 68 764 b 578 -17 68 208 289 -17 b 1086 486 865 -17 1086 208 z m 474 1310 l 311 1103 l 424 1019 l 579 1194 l 733 1019 l 847 1103 l 690 1310 z "},"Õ":{"ha":1154,"x_min":0,"x_max":0,"o":"m 874 486 b 578 157 874 301 749 157 b 281 486 406 157 281 301 b 578 815 281 671 406 815 b 874 486 749 815 874 671 z m 1086 486 b 578 989 1086 764 865 989 b 68 486 289 989 68 764 b 578 -17 68 208 289 -17 b 1086 486 865 -17 1086 208 z m 740 1219 b 742 1210 742 1217 742 1213 b 707 1178 742 1189 725 1178 b 506 1249 665 1178 594 1249 b 344 1106 408 1249 344 1190 b 354 1051 344 1088 349 1069 l 467 1064 b 465 1074 465 1067 465 1071 b 500 1106 467 1094 482 1106 b 703 1035 544 1106 613 1035 b 863 1178 799 1035 863 1092 b 854 1232 863 1194 860 1214 z "},"Ö":{"ha":1154,"x_min":0,"x_max":0,"o":"m 874 486 b 578 157 874 301 749 157 b 281 486 406 157 281 301 b 578 815 281 671 406 815 b 874 486 749 815 874 671 z m 1086 486 b 578 989 1086 764 865 989 b 68 486 289 989 68 764 b 578 -17 68 208 289 -17 b 1086 486 865 -17 1086 208 z m 489 1058 l 489 1225 l 282 1225 l 282 1058 z m 874 1058 l 874 1225 l 667 1225 l 667 1058 z "},"Ø":{"ha":1154,"x_min":0,"x_max":0,"o":"m 1086 486 b 919 861 1086 635 1022 768 l 961 924 l 832 1008 l 789 944 b 578 989 725 972 654 989 b 68 486 289 989 68 764 b 231 115 68 339 131 207 l 183 46 l 313 -39 l 360 31 b 578 -17 425 0 499 -17 b 1086 486 865 -17 1086 208 z m 874 486 b 578 157 874 301 749 157 b 461 182 536 157 497 165 l 808 696 b 874 486 850 639 874 567 z m 281 486 b 578 815 281 671 406 815 b 688 793 617 815 654 807 l 342 281 b 281 486 303 336 281 407 z "},"Ǿ":{"ha":1154,"x_min":0,"x_max":0,"o":"m 1086 486 b 919 861 1086 635 1022 768 l 961 924 l 832 1008 l 789 944 b 578 989 725 972 654 989 b 68 486 289 989 68 764 b 231 115 68 339 131 207 l 183 46 l 313 -39 l 360 31 b 578 -17 425 0 499 -17 b 1086 486 865 -17 1086 208 z m 874 486 b 578 157 874 301 749 157 b 461 182 536 157 497 165 l 808 696 b 874 486 850 639 874 567 z m 281 486 b 578 815 281 671 406 815 b 688 793 617 815 654 807 l 342 281 b 281 486 303 336 281 407 z m 829 1196 l 726 1331 l 488 1131 l 576 1018 z "},"Ù":{"ha":994,"x_min":0,"x_max":0,"o":"m 889 972 l 690 972 l 690 432 b 497 157 690 246 615 157 b 304 432 379 157 304 246 l 304 972 l 106 972 l 106 458 b 494 -17 106 153 222 -17 b 889 458 772 -17 889 153 z m 499 1018 l 588 1131 l 349 1331 l 246 1196 z "},"Ú":{"ha":994,"x_min":0,"x_max":0,"o":"m 889 972 l 690 972 l 690 432 b 497 157 690 246 615 157 b 304 432 379 157 304 246 l 304 972 l 106 972 l 106 458 b 494 -17 106 153 222 -17 b 889 458 772 -17 889 153 z m 726 1196 l 624 1331 l 385 1131 l 474 1018 z "},"Û":{"ha":994,"x_min":0,"x_max":0,"o":"m 889 972 l 690 972 l 690 432 b 497 157 690 246 615 157 b 304 432 379 157 304 246 l 304 972 l 106 972 l 106 458 b 494 -17 106 153 222 -17 b 889 458 772 -17 889 153 z m 396 1310 l 233 1103 l 346 1019 l 501 1194 l 656 1019 l 769 1103 l 613 1310 z "},"Ü":{"ha":994,"x_min":0,"x_max":0,"o":"m 889 972 l 690 972 l 690 432 b 497 157 690 246 615 157 b 304 432 379 157 304 246 l 304 972 l 106 972 l 106 458 b 494 -17 106 153 222 -17 b 889 458 772 -17 889 153 z m 410 1058 l 410 1225 l 203 1225 l 203 1058 z m 794 1058 l 794 1225 l 588 1225 l 588 1058 z "},"Ý":{"ha":844,"x_min":0,"x_max":0,"o":"m 514 0 l 514 401 l 839 972 l 607 972 l 424 622 l 421 622 l 253 972 l 6 972 l 315 407 l 315 0 z m 660 1196 l 557 1331 l 318 1131 l 407 1018 z "},"Þ":{"ha":825,"x_min":0,"x_max":0,"o":"m 108 972 l 108 -10 l 307 -10 l 307 189 l 418 189 b 782 493 585 189 782 269 b 418 794 782 714 583 794 l 307 794 l 307 972 z m 571 489 b 386 357 571 392 492 357 l 307 357 l 307 626 l 413 626 b 571 489 507 626 571 575 z "},"ß":{"ha":890,"x_min":0,"x_max":0,"o":"m 283 0 l 283 717 b 433 893 283 824 329 893 b 564 767 510 893 564 842 b 428 633 564 683 494 633 b 389 635 417 633 403 633 l 389 481 b 458 486 414 485 439 486 b 646 310 567 486 646 424 b 492 149 646 215 592 149 b 414 167 464 149 439 154 l 364 11 b 499 -17 408 -8 451 -17 b 840 308 682 -17 840 115 b 663 582 840 436 775 540 b 757 776 721 625 757 696 b 429 1058 757 958 601 1058 b 92 742 246 1058 92 944 l 92 0 z "},"à":{"ha":799,"x_min":0,"x_max":0,"o":"m 710 0 l 710 439 b 408 747 710 629 611 747 b 94 672 300 747 188 718 l 147 531 b 368 594 211 564 285 594 b 513 447 475 594 513 539 l 513 436 b 381 451 467 446 421 451 b 63 215 229 451 63 394 b 325 -17 63 65 189 -17 b 524 63 403 -17 476 4 l 539 0 z m 513 183 b 367 121 471 146 424 121 b 256 218 308 121 256 154 b 413 331 256 304 340 331 b 513 318 443 331 475 326 z m 378 803 l 492 889 l 307 1147 l 174 1042 z "},"á":{"ha":799,"x_min":0,"x_max":0,"o":"m 710 0 l 710 439 b 408 747 710 629 611 747 b 94 672 300 747 188 718 l 147 531 b 368 594 211 564 285 594 b 513 447 475 594 513 539 l 513 436 b 381 451 467 446 421 451 b 63 215 229 451 63 394 b 325 -17 63 65 189 -17 b 524 63 403 -17 476 4 l 539 0 z m 513 183 b 367 121 471 146 424 121 b 256 218 308 121 256 154 b 413 331 256 304 340 331 b 513 318 443 331 475 326 z m 639 1042 l 506 1147 l 321 889 l 435 803 z "},"â":{"ha":799,"x_min":0,"x_max":0,"o":"m 710 0 l 710 439 b 408 747 710 629 611 747 b 94 672 300 747 188 718 l 147 531 b 368 594 211 564 285 594 b 513 447 475 594 513 539 l 513 436 b 381 451 467 446 421 451 b 63 215 229 451 63 394 b 325 -17 63 65 189 -17 b 524 63 403 -17 476 4 l 539 0 z m 513 183 b 367 121 471 146 424 121 b 256 218 308 121 256 154 b 413 331 256 304 340 331 b 513 318 443 331 475 326 z m 293 1110 l 135 876 l 246 810 l 390 989 l 536 810 l 647 876 l 492 1110 z "},"ã":{"ha":799,"x_min":0,"x_max":0,"o":"m 710 0 l 710 439 b 408 747 710 629 611 747 b 94 672 300 747 188 718 l 147 531 b 368 594 211 564 285 594 b 513 447 475 594 513 539 l 513 436 b 381 451 467 446 421 451 b 63 215 229 451 63 394 b 325 -17 63 65 189 -17 b 524 63 403 -17 476 4 l 539 0 z m 513 183 b 367 121 471 146 424 121 b 256 218 308 121 256 154 b 413 331 256 304 340 331 b 513 318 443 331 475 326 z m 260 836 b 258 846 258 838 258 843 b 293 878 260 867 275 878 b 496 807 336 878 406 807 b 656 950 593 807 656 865 b 647 1003 656 967 653 985 l 535 990 b 536 981 536 989 536 983 b 501 949 535 960 519 949 b 299 1019 458 949 389 1019 b 139 876 201 1019 139 961 b 147 824 139 860 142 842 z "},"ä":{"ha":799,"x_min":0,"x_max":0,"o":"m 710 0 l 710 439 b 408 747 710 629 611 747 b 94 672 300 747 188 718 l 147 531 b 368 594 211 564 285 594 b 513 447 475 594 513 539 l 513 436 b 381 451 467 446 421 451 b 63 215 229 451 63 394 b 325 -17 63 65 189 -17 b 524 63 403 -17 476 4 l 539 0 z m 513 183 b 367 121 471 146 424 121 b 256 218 308 121 256 154 b 413 331 256 304 340 331 b 513 318 443 331 475 326 z m 324 832 l 324 1000 l 125 1000 l 125 832 z m 658 832 l 658 1000 l 460 1000 l 460 832 z "},"å":{"ha":799,"x_min":0,"x_max":0,"o":"m 710 0 l 710 439 b 408 747 710 629 611 747 b 94 672 300 747 188 718 l 147 531 b 368 594 211 564 285 594 b 513 447 475 594 513 539 l 513 436 b 381 451 467 446 421 451 b 63 215 229 451 63 394 b 325 -17 63 65 189 -17 b 524 63 403 -17 476 4 l 539 0 z m 513 183 b 367 121 471 146 424 121 b 256 218 308 121 256 154 b 413 331 256 304 340 331 b 513 318 443 331 475 326 z m 253 957 b 410 800 253 871 322 800 b 567 957 497 800 567 871 b 410 1114 567 1043 497 1114 b 253 957 322 1114 253 1043 z m 347 957 b 410 1019 347 992 375 1019 b 472 957 444 1019 472 992 b 410 894 472 922 444 894 b 347 957 375 894 347 922 z "},"ǻ":{"ha":799,"x_min":0,"x_max":0,"o":"m 629 1244 l 554 1364 l 294 1183 l 358 1085 z m 264 924 b 413 775 264 842 329 775 b 561 924 496 775 561 842 b 413 1072 561 1006 496 1072 b 264 924 329 1072 264 1006 z m 356 924 b 413 981 356 956 381 981 b 469 924 444 981 469 956 b 413 867 469 892 444 867 b 356 924 381 867 356 892 z m 710 0 l 710 439 b 408 747 710 629 611 747 b 94 672 300 747 188 718 l 147 531 b 368 594 211 564 285 594 b 513 447 475 594 513 539 l 513 436 b 381 451 467 446 421 451 b 63 215 229 451 63 394 b 325 -17 63 65 189 -17 b 524 63 403 -17 476 4 l 539 0 z m 513 183 b 367 121 471 146 424 121 b 256 218 308 121 256 154 b 413 331 256 304 340 331 b 513 318 443 331 475 326 z "},"æ":{"ha":1279,"x_min":0,"x_max":0,"o":"m 1222 317 b 1232 410 1228 346 1232 381 b 879 747 1232 604 1082 747 b 640 653 788 747 704 714 b 408 747 593 714 518 747 b 94 672 300 747 188 718 l 147 531 b 368 594 211 564 285 594 b 513 447 475 594 513 539 l 513 436 b 381 451 467 446 421 451 b 63 215 229 451 63 394 b 325 -17 63 65 189 -17 b 607 90 421 -17 513 0 b 878 -17 672 24 765 -17 b 1211 163 1035 -17 1128 42 l 1082 250 b 892 142 1035 181 986 142 b 708 317 788 142 722 217 z m 535 207 b 367 121 482 143 424 121 b 256 218 308 121 256 154 b 413 331 256 304 340 331 b 510 318 442 331 474 326 b 535 207 514 278 521 242 z m 718 451 b 885 593 739 533 790 593 b 1031 451 965 593 1026 539 z "},"ǽ":{"ha":1279,"x_min":0,"x_max":0,"o":"m 1222 317 b 1232 410 1228 346 1232 381 b 879 747 1232 604 1082 747 b 640 653 788 747 704 714 b 408 747 593 714 518 747 b 94 672 300 747 188 718 l 147 531 b 368 594 211 564 285 594 b 513 447 475 594 513 539 l 513 436 b 381 451 467 446 421 451 b 63 215 229 451 63 394 b 325 -17 63 65 189 -17 b 607 90 421 -17 513 0 b 878 -17 672 24 765 -17 b 1211 163 1035 -17 1128 42 l 1082 250 b 892 142 1035 181 986 142 b 708 317 788 142 722 217 z m 535 207 b 367 121 482 143 424 121 b 256 218 308 121 256 154 b 413 331 256 304 340 331 b 510 318 442 331 474 326 b 535 207 514 278 521 242 z m 718 451 b 885 593 739 533 790 593 b 1031 451 965 593 1026 539 z m 885 1042 l 751 1147 l 567 889 l 681 803 z "},"ç":{"ha":710,"x_min":0,"x_max":0,"o":"m 574 208 b 433 153 532 168 488 153 b 247 365 329 153 247 243 b 436 578 247 482 325 578 b 578 519 493 578 538 557 l 679 657 b 422 747 607 717 522 747 b 46 365 200 747 46 578 b 289 3 46 186 143 51 l 232 -128 l 335 -179 b 386 -151 347 -158 364 -151 b 438 -207 415 -151 438 -178 b 385 -258 438 -236 417 -258 b 329 -214 357 -258 340 -240 l 235 -260 b 394 -357 271 -325 322 -357 b 554 -204 486 -357 554 -282 b 424 -64 554 -122 490 -64 b 360 -85 403 -64 381 -69 l 358 -85 l 385 -15 b 417 -17 394 -17 406 -17 b 679 74 521 -17 607 10 z "},"è":{"ha":817,"x_min":0,"x_max":0,"o":"m 760 317 b 769 410 765 346 769 381 b 417 747 769 604 619 747 b 46 357 207 747 46 578 b 415 -17 46 138 194 -17 b 749 163 572 -17 665 42 l 619 250 b 429 142 572 181 524 142 b 246 317 325 142 260 217 z m 256 451 b 422 593 276 533 328 593 b 568 451 503 593 564 539 z m 388 803 l 501 889 l 317 1147 l 183 1042 z "},"é":{"ha":817,"x_min":0,"x_max":0,"o":"m 760 317 b 769 410 765 346 769 381 b 417 747 769 604 619 747 b 46 357 207 747 46 578 b 415 -17 46 138 194 -17 b 749 163 572 -17 665 42 l 619 250 b 429 142 572 181 524 142 b 246 317 325 142 260 217 z m 256 451 b 422 593 276 533 328 593 b 568 451 503 593 564 539 z m 676 1042 l 543 1147 l 358 889 l 472 803 z "},"ê":{"ha":817,"x_min":0,"x_max":0,"o":"m 760 317 b 769 410 765 346 769 381 b 417 747 769 604 619 747 b 46 357 207 747 46 578 b 415 -17 46 138 194 -17 b 749 163 572 -17 665 42 l 619 250 b 429 142 572 181 524 142 b 246 317 325 142 260 217 z m 256 451 b 422 593 276 533 328 593 b 568 451 503 593 564 539 z m 322 1110 l 164 876 l 275 810 l 419 989 l 565 810 l 676 876 l 521 1110 z "},"ë":{"ha":817,"x_min":0,"x_max":0,"o":"m 760 317 b 769 410 765 346 769 381 b 417 747 769 604 619 747 b 46 357 207 747 46 578 b 415 -17 46 138 194 -17 b 749 163 572 -17 665 42 l 619 250 b 429 142 572 181 524 142 b 246 317 325 142 260 217 z m 256 451 b 422 593 276 533 328 593 b 568 451 503 593 564 539 z m 351 832 l 351 1000 l 153 1000 l 153 832 z m 686 832 l 686 1000 l 488 1000 l 488 832 z "},"ì":{"ha":389,"x_min":0,"x_max":0,"o":"m 293 0 l 293 731 l 96 731 l 96 0 z m 158 803 l 272 889 l 88 1147 l -46 1042 z "},"í":{"ha":389,"x_min":0,"x_max":0,"o":"m 293 0 l 293 731 l 96 731 l 96 0 z m 433 1042 l 300 1147 l 115 889 l 229 803 z "},"î":{"ha":389,"x_min":0,"x_max":0,"o":"m 293 0 l 293 731 l 96 731 l 96 0 z m 96 1110 l -62 876 l 49 810 l 193 989 l 339 810 l 450 876 l 294 1110 z "},"ï":{"ha":389,"x_min":0,"x_max":0,"o":"m 146 832 l 146 1000 l -53 1000 l -53 832 z m 443 832 l 443 1000 l 244 1000 l 244 832 z m 293 0 l 293 731 l 96 731 l 96 0 z "},"ð":{"ha":846,"x_min":0,"x_max":0,"o":"m 328 819 b 535 622 415 767 486 703 b 389 661 490 649 446 661 b 46 331 193 661 46 526 b 408 -17 46 147 204 -17 b 800 364 642 -17 800 150 b 408 969 800 657 639 840 l 465 1078 l 339 1144 l 279 1033 b 158 1088 240 1051 199 1069 l 90 929 b 200 883 126 915 164 900 l 138 767 l 263 699 z m 589 454 b 599 360 594 425 599 393 b 417 146 599 247 549 146 b 247 335 318 146 247 233 b 435 499 247 446 336 499 b 589 454 489 499 539 486 z "},"ñ":{"ha":858,"x_min":0,"x_max":0,"o":"m 96 731 l 96 0 l 293 0 l 293 485 b 451 578 329 544 393 578 b 549 526 494 578 531 563 b 571 369 569 485 571 424 l 571 0 l 768 0 l 768 379 b 703 651 768 483 760 578 b 508 747 657 710 588 747 b 282 631 428 747 340 713 l 267 731 z m 329 836 b 328 846 328 838 328 843 b 363 878 329 867 344 878 b 565 807 406 878 475 807 b 725 950 663 807 725 865 b 717 1003 725 967 722 985 l 604 990 b 606 981 606 989 606 983 b 571 949 604 960 589 949 b 368 1019 528 949 458 1019 b 208 876 271 1019 208 961 b 217 824 208 860 211 842 z "},"ò":{"ha":857,"x_min":0,"x_max":0,"o":"m 429 747 b 46 365 206 747 46 581 b 429 -17 46 150 206 -17 b 811 365 651 -17 811 150 b 429 747 811 581 651 747 z m 610 365 b 429 153 610 246 538 153 b 247 365 321 153 247 246 b 429 578 247 485 321 578 b 610 365 538 578 610 485 z m 365 803 l 479 889 l 294 1147 l 161 1042 z "},"ó":{"ha":857,"x_min":0,"x_max":0,"o":"m 429 747 b 46 365 206 747 46 581 b 429 -17 46 150 206 -17 b 811 365 651 -17 811 150 b 429 747 811 581 651 747 z m 610 365 b 429 153 610 246 538 153 b 247 365 321 153 247 246 b 429 578 247 485 321 578 b 610 365 538 578 610 485 z m 681 1042 l 547 1147 l 363 889 l 476 803 z "},"ô":{"ha":857,"x_min":0,"x_max":0,"o":"m 429 747 b 46 365 206 747 46 581 b 429 -17 46 150 206 -17 b 811 365 651 -17 811 150 b 429 747 811 581 651 747 z m 610 365 b 429 153 610 246 538 153 b 247 365 321 153 247 246 b 429 578 247 485 321 578 b 610 365 538 578 610 485 z m 332 1110 l 174 876 l 285 810 l 429 989 l 575 810 l 686 876 l 531 1110 z "},"õ":{"ha":857,"x_min":0,"x_max":0,"o":"m 429 747 b 46 365 206 747 46 581 b 429 -17 46 150 206 -17 b 811 365 651 -17 811 150 b 429 747 811 581 651 747 z m 610 365 b 429 153 610 246 538 153 b 247 365 321 153 247 246 b 429 578 247 485 321 578 b 610 365 538 578 610 485 z m 314 836 b 313 846 313 838 313 843 b 347 878 314 867 329 878 b 550 807 390 878 460 807 b 710 950 647 807 710 865 b 701 1003 710 967 707 985 l 589 990 b 590 981 590 989 590 983 b 556 949 589 960 574 949 b 353 1019 513 949 443 1019 b 193 876 256 1019 193 961 b 201 824 193 860 196 842 z "},"ö":{"ha":857,"x_min":0,"x_max":0,"o":"m 429 747 b 46 365 206 747 46 581 b 429 -17 46 150 206 -17 b 811 365 651 -17 811 150 b 429 747 811 581 651 747 z m 610 365 b 429 153 610 246 538 153 b 247 365 321 153 247 246 b 429 578 247 485 321 578 b 610 365 538 578 610 485 z m 361 832 l 361 1000 l 163 1000 l 163 832 z m 696 832 l 696 1000 l 497 1000 l 497 832 z "},"ø":{"ha":857,"x_min":0,"x_max":0,"o":"m 429 747 b 46 365 206 747 46 581 b 161 86 46 253 89 156 l 122 26 l 224 -40 l 263 18 b 429 -17 313 -4 368 -17 b 811 365 651 -17 811 150 b 690 650 811 479 765 581 l 722 697 l 621 764 l 588 715 b 429 747 540 736 486 747 z m 610 365 b 429 153 610 246 538 153 b 363 165 406 153 383 157 l 579 486 b 610 365 599 453 610 411 z m 247 365 b 429 578 247 485 321 578 b 488 568 450 578 469 574 l 274 250 b 247 365 257 283 247 322 z "},"ǿ":{"ha":857,"x_min":0,"x_max":0,"o":"m 681 1042 l 547 1147 l 363 889 l 476 803 z m 429 747 b 46 365 206 747 46 581 b 161 86 46 253 89 156 l 122 26 l 224 -40 l 263 18 b 429 -17 313 -4 368 -17 b 811 365 651 -17 811 150 b 690 650 811 479 765 581 l 722 697 l 621 764 l 588 715 b 429 747 540 736 486 747 z m 610 365 b 429 153 610 246 538 153 b 363 165 406 153 383 157 l 579 486 b 610 365 599 453 610 411 z m 247 365 b 429 578 247 485 321 578 b 488 568 450 578 469 574 l 274 250 b 247 365 257 283 247 322 z "},"ù":{"ha":858,"x_min":0,"x_max":0,"o":"m 761 0 l 761 731 l 564 731 l 564 246 b 406 153 528 186 464 153 b 308 204 363 153 326 168 b 286 361 288 246 286 307 l 286 731 l 89 731 l 89 351 b 154 79 89 247 97 153 b 349 -17 200 21 269 -17 b 575 100 429 -17 517 18 l 590 0 z m 413 803 l 526 889 l 342 1147 l 208 1042 z "},"ú":{"ha":858,"x_min":0,"x_max":0,"o":"m 761 0 l 761 731 l 564 731 l 564 246 b 406 153 528 186 464 153 b 308 204 363 153 326 168 b 286 361 288 246 286 307 l 286 731 l 89 731 l 89 351 b 154 79 89 247 97 153 b 349 -17 200 21 269 -17 b 575 100 429 -17 517 18 l 590 0 z m 667 1042 l 533 1147 l 349 889 l 463 803 z "},"û":{"ha":858,"x_min":0,"x_max":0,"o":"m 761 0 l 761 731 l 564 731 l 564 246 b 406 153 528 186 464 153 b 308 204 363 153 326 168 b 286 361 288 246 286 307 l 286 731 l 89 731 l 89 351 b 154 79 89 247 97 153 b 349 -17 200 21 269 -17 b 575 100 429 -17 517 18 l 590 0 z m 333 1110 l 175 876 l 286 810 l 431 989 l 576 810 l 688 876 l 532 1110 z "},"ü":{"ha":858,"x_min":0,"x_max":0,"o":"m 761 0 l 761 731 l 564 731 l 564 246 b 406 153 528 186 464 153 b 308 204 363 153 326 168 b 286 361 288 246 286 307 l 286 731 l 89 731 l 89 351 b 154 79 89 247 97 153 b 349 -17 200 21 269 -17 b 575 100 429 -17 517 18 l 590 0 z m 358 832 l 358 1000 l 160 1000 l 160 832 z m 693 832 l 693 1000 l 494 1000 l 494 832 z "},"ý":{"ha":738,"x_min":0,"x_max":0,"o":"m 4 731 l 263 43 l 146 -267 l 322 -335 l 733 731 l 519 731 l 369 296 l 367 296 l 219 731 z m 593 1042 l 460 1147 l 275 889 l 389 803 z "},"þ":{"ha":894,"x_min":0,"x_max":0,"o":"m 96 1042 l 96 -347 l 293 -347 l 293 69 b 507 -17 349 6 436 -17 b 849 363 704 -17 849 157 b 508 747 849 575 703 747 b 293 654 438 747 346 722 l 293 1042 z m 293 481 b 465 578 336 553 403 578 b 647 368 579 578 647 476 b 463 153 647 265 589 153 b 293 232 400 153 342 174 z "},"ÿ":{"ha":738,"x_min":0,"x_max":0,"o":"m 4 731 l 263 43 l 146 -267 l 322 -335 l 733 731 l 519 731 l 369 296 l 367 296 l 219 731 z m 304 832 l 304 1000 l 106 1000 l 106 832 z m 639 832 l 639 1000 l 440 1000 l 440 832 z "},"Ā":{"ha":957,"x_min":0,"x_max":0,"o":"m 940 0 l 575 972 l 414 972 l 17 0 l 238 0 l 303 181 l 649 181 l 711 0 z m 479 669 l 481 669 l 593 343 l 361 343 z m 744 1072 l 744 1204 l 239 1204 l 239 1072 z "},"ā":{"ha":799,"x_min":0,"x_max":0,"o":"m 710 0 l 710 439 b 408 747 710 629 611 747 b 94 672 300 747 188 718 l 147 531 b 368 594 211 564 285 594 b 513 447 475 594 513 539 l 513 436 b 381 451 467 446 421 451 b 63 215 229 451 63 394 b 325 -17 63 65 189 -17 b 524 63 403 -17 476 4 l 539 0 z m 513 183 b 367 121 471 146 424 121 b 256 218 308 121 256 154 b 413 331 256 304 340 331 b 513 318 443 331 475 326 z m 628 846 l 628 982 l 153 982 l 153 846 z "},"Ă":{"ha":957,"x_min":0,"x_max":0,"o":"m 940 0 l 575 972 l 414 972 l 17 0 l 238 0 l 303 181 l 649 181 l 711 0 z m 479 669 l 481 669 l 593 343 l 361 343 z m 264 1263 l 264 1246 b 493 1029 264 1119 365 1029 b 722 1246 621 1029 722 1119 l 722 1263 l 582 1263 b 583 1244 583 1256 583 1250 b 493 1158 583 1194 544 1158 b 407 1244 442 1158 407 1194 b 408 1263 407 1250 407 1256 z "},"ă":{"ha":799,"x_min":0,"x_max":0,"o":"m 710 0 l 710 439 b 408 747 710 629 611 747 b 94 672 300 747 188 718 l 147 531 b 368 594 211 564 285 594 b 513 447 475 594 513 539 l 513 436 b 381 451 467 446 421 451 b 63 215 229 451 63 394 b 325 -17 63 65 189 -17 b 524 63 403 -17 476 4 l 539 0 z m 513 183 b 367 121 471 146 424 121 b 256 218 308 121 256 154 b 413 331 256 304 340 331 b 513 318 443 331 475 326 z m 629 1065 l 489 1065 b 490 1039 490 1058 490 1044 b 400 943 490 989 451 943 b 311 1039 349 943 311 989 b 313 1065 311 1044 311 1058 l 171 1065 l 171 1042 b 400 814 171 914 272 814 b 629 1042 528 814 629 914 z "},"Ą":{"ha":957,"x_min":0,"x_max":0,"o":"m 479 669 l 481 669 l 593 343 l 361 343 z m 575 972 l 414 972 l 17 0 l 238 0 l 303 181 l 649 181 l 708 6 b 597 -167 639 -29 597 -93 b 783 -315 597 -254 679 -315 b 939 -274 846 -315 901 -297 l 893 -165 b 826 -183 871 -176 847 -183 b 758 -128 778 -183 758 -160 b 940 0 758 -60 831 -14 z "},"ą":{"ha":799,"x_min":0,"x_max":0,"o":"m 511 183 b 367 121 469 146 424 121 b 256 218 308 121 256 154 b 413 331 256 304 340 331 b 511 318 443 331 474 326 z m 710 0 l 710 439 b 408 747 710 629 611 747 b 94 672 300 747 188 718 l 147 531 b 368 594 211 564 285 594 b 511 447 474 594 511 539 l 511 436 b 381 451 465 446 421 451 b 63 215 229 451 63 394 b 325 -17 63 65 189 -17 b 524 63 403 -17 476 4 l 536 7 b 383 -167 432 -33 383 -96 b 569 -315 383 -254 465 -315 b 725 -274 632 -315 688 -297 l 679 -165 b 613 -183 658 -176 633 -183 b 544 -128 564 -183 544 -160 b 710 0 544 -62 619 -21 z "},"Ć":{"ha":938,"x_min":0,"x_max":0,"o":"m 281 486 b 586 815 281 671 410 815 b 789 740 661 815 731 785 l 885 894 b 586 989 789 954 697 989 b 68 486 300 989 68 771 b 578 -17 68 189 286 -17 b 904 93 697 -17 810 21 l 793 238 b 586 157 733 186 660 157 b 281 486 396 157 281 292 z m 826 1196 l 724 1331 l 485 1131 l 574 1018 z "},"ć":{"ha":710,"x_min":0,"x_max":0,"o":"m 574 208 b 433 153 532 168 488 153 b 247 365 329 153 247 243 b 436 578 247 482 325 578 b 578 519 493 578 538 557 l 679 657 b 422 747 607 717 522 747 b 46 365 200 747 46 578 b 417 -17 46 139 201 -17 b 679 74 521 -17 607 10 z m 682 1042 l 549 1147 l 364 889 l 478 803 z "},"Ĉ":{"ha":938,"x_min":0,"x_max":0,"o":"m 281 486 b 586 815 281 671 410 815 b 789 740 661 815 731 785 l 885 894 b 586 989 789 954 697 989 b 68 486 300 989 68 771 b 578 -17 68 189 286 -17 b 904 93 697 -17 810 21 l 793 238 b 586 157 733 186 660 157 b 281 486 396 157 281 292 z m 476 1310 l 314 1103 l 426 1019 l 582 1194 l 736 1019 l 850 1103 l 693 1310 z "},"ĉ":{"ha":710,"x_min":0,"x_max":0,"o":"m 574 208 b 433 153 532 168 488 153 b 247 365 329 153 247 243 b 436 578 247 482 325 578 b 578 519 493 578 538 557 l 679 657 b 422 747 607 717 522 747 b 46 365 200 747 46 578 b 417 -17 46 139 201 -17 b 679 74 521 -17 607 10 z m 321 1110 l 163 876 l 274 810 l 418 989 l 564 810 l 675 876 l 519 1110 z "},"Ċ":{"ha":938,"x_min":0,"x_max":0,"o":"m 281 486 b 586 815 281 671 410 815 b 789 740 661 815 731 785 l 885 894 b 586 989 789 954 697 989 b 68 486 300 989 68 771 b 578 -17 68 189 286 -17 b 904 93 697 -17 810 21 l 793 238 b 586 157 733 186 660 157 b 281 486 396 157 281 292 z m 678 1058 l 678 1225 l 475 1225 l 475 1058 z "},"ċ":{"ha":710,"x_min":0,"x_max":0,"o":"m 574 208 b 433 153 532 168 488 153 b 247 365 329 153 247 243 b 436 578 247 482 325 578 b 578 519 493 578 538 557 l 679 657 b 422 747 607 717 522 747 b 46 365 200 747 46 578 b 417 -17 46 139 201 -17 b 679 74 521 -17 607 10 z m 506 832 l 506 1000 l 308 1000 l 308 832 z "},"Č":{"ha":938,"x_min":0,"x_max":0,"o":"m 281 486 b 586 815 281 671 410 815 b 789 740 661 815 731 785 l 885 894 b 586 989 789 954 697 989 b 68 486 300 989 68 771 b 578 -17 68 189 286 -17 b 904 93 697 -17 810 21 l 793 238 b 586 157 733 186 660 157 b 281 486 396 157 281 292 z m 688 1036 l 850 1243 l 739 1326 l 583 1151 l 429 1326 l 314 1243 l 471 1036 z "},"č":{"ha":710,"x_min":0,"x_max":0,"o":"m 574 208 b 433 153 532 168 488 153 b 247 365 329 153 247 243 b 436 578 247 482 325 578 b 578 519 493 578 538 557 l 679 657 b 422 747 607 717 522 747 b 46 365 200 747 46 578 b 417 -17 46 139 201 -17 b 679 74 521 -17 607 10 z m 518 825 l 676 1058 l 567 1125 l 422 946 l 276 1125 l 164 1058 l 319 825 z "},"Ď":{"ha":993,"x_min":0,"x_max":0,"o":"m 108 0 l 379 0 b 925 490 646 0 925 131 b 392 972 925 842 643 972 l 108 972 z m 307 804 l 368 804 b 713 478 586 804 713 692 b 329 168 713 249 557 168 l 307 168 z m 554 1036 l 717 1243 l 606 1326 l 450 1151 l 296 1326 l 181 1243 l 338 1036 z "},"ď":{"ha":996,"x_min":0,"x_max":0,"o":"m 799 0 l 799 1042 l 601 1042 l 601 660 b 389 747 546 722 458 747 b 46 368 190 747 46 574 b 386 -17 46 156 193 -17 b 611 90 461 -17 560 10 l 628 0 z m 601 249 b 429 153 558 176 492 153 b 247 363 317 153 247 256 b 432 578 247 465 306 578 b 601 499 493 578 551 557 z m 1007 740 l 1086 1042 l 903 1042 l 842 740 z "},"Đ":{"ha":993,"x_min":0,"x_max":0,"o":"m 108 0 l 379 0 b 925 490 646 0 925 131 b 392 972 925 842 643 972 l 108 972 l 108 571 l 15 571 l 15 435 l 108 435 z m 713 478 b 329 168 713 249 557 168 l 307 168 l 307 435 l 464 435 l 464 571 l 307 571 l 307 804 l 368 804 b 713 478 586 804 713 692 z "},"đ":{"ha":894,"x_min":0,"x_max":0,"o":"m 799 0 l 799 814 l 893 814 l 893 947 l 799 947 l 799 1042 l 601 1042 l 601 947 l 379 947 l 379 814 l 601 814 l 601 660 b 389 747 546 722 458 747 b 46 368 190 747 46 574 b 386 -17 46 156 193 -17 b 611 90 461 -17 560 10 l 628 0 z m 601 249 b 429 153 558 176 492 153 b 247 363 317 153 247 256 b 432 578 247 465 306 578 b 601 499 493 578 551 557 z "},"Ē":{"ha":806,"x_min":0,"x_max":0,"o":"m 732 0 l 732 168 l 307 168 l 307 417 l 732 417 l 732 585 l 307 585 l 307 804 l 732 804 l 732 972 l 108 972 l 108 0 z m 682 1072 l 682 1204 l 176 1204 l 176 1072 z "},"ē":{"ha":817,"x_min":0,"x_max":0,"o":"m 760 317 b 769 410 765 346 769 381 b 417 747 769 604 619 747 b 46 357 207 747 46 578 b 415 -17 46 138 194 -17 b 749 163 572 -17 665 42 l 619 250 b 429 142 572 181 524 142 b 246 317 325 142 260 217 z m 256 451 b 422 593 276 533 328 593 b 568 451 503 593 564 539 z m 661 846 l 661 982 l 186 982 l 186 846 z "},"Ĕ":{"ha":806,"x_min":0,"x_max":0,"o":"m 732 0 l 732 168 l 307 168 l 307 417 l 732 417 l 732 585 l 307 585 l 307 804 l 732 804 l 732 972 l 108 972 l 108 0 z m 203 1263 l 203 1246 b 432 1029 203 1119 304 1029 b 661 1246 560 1029 661 1119 l 661 1263 l 521 1263 b 522 1244 522 1256 522 1250 b 432 1158 522 1194 483 1158 b 346 1244 381 1158 346 1194 b 347 1263 346 1250 346 1256 z "},"ĕ":{"ha":817,"x_min":0,"x_max":0,"o":"m 760 317 b 769 410 765 346 769 381 b 417 747 769 604 619 747 b 46 357 207 747 46 578 b 415 -17 46 138 194 -17 b 749 163 572 -17 665 42 l 619 250 b 429 142 572 181 524 142 b 246 317 325 142 260 217 z m 256 451 b 422 593 276 533 328 593 b 568 451 503 593 564 539 z m 650 1065 l 510 1065 b 511 1039 511 1058 511 1044 b 421 943 511 989 472 943 b 332 1039 369 943 332 989 b 333 1065 332 1044 332 1058 l 192 1065 l 192 1042 b 421 814 192 914 293 814 b 650 1042 549 814 650 914 z "},"Ė":{"ha":806,"x_min":0,"x_max":0,"o":"m 732 0 l 732 168 l 307 168 l 307 417 l 732 417 l 732 585 l 307 585 l 307 804 l 732 804 l 732 972 l 108 972 l 108 0 z m 533 1058 l 533 1225 l 331 1225 l 331 1058 z "},"ė":{"ha":817,"x_min":0,"x_max":0,"o":"m 760 317 b 769 410 765 346 769 381 b 417 747 769 604 619 747 b 46 357 207 747 46 578 b 415 -17 46 138 194 -17 b 749 163 572 -17 665 42 l 619 250 b 429 142 572 181 524 142 b 246 317 325 142 260 217 z m 256 451 b 422 593 276 533 328 593 b 568 451 503 593 564 539 z m 514 832 l 514 1000 l 317 1000 l 317 832 z "},"Ę":{"ha":806,"x_min":0,"x_max":0,"o":"m 108 972 l 108 0 l 531 0 b 407 -167 442 -39 407 -99 b 594 -315 407 -254 490 -315 b 749 -274 656 -315 713 -297 l 703 -165 b 638 -183 682 -176 658 -183 b 568 -128 589 -183 568 -160 b 732 0 568 -62 635 -18 l 732 168 l 307 168 l 307 417 l 732 417 l 732 585 l 307 585 l 307 804 l 732 804 l 732 972 z "},"ę":{"ha":817,"x_min":0,"x_max":0,"o":"m 256 451 b 422 593 276 533 328 593 b 568 451 503 593 564 539 z m 749 163 l 619 250 b 429 142 572 181 524 142 b 246 317 325 142 260 217 l 760 317 b 769 410 765 346 769 381 b 417 747 769 604 619 747 b 46 357 207 747 46 578 b 367 -14 46 154 172 7 b 292 -167 314 -54 292 -112 b 478 -315 292 -254 375 -315 b 633 -274 540 -315 597 -297 l 588 -165 b 522 -183 567 -176 543 -183 b 453 -115 478 -183 453 -156 b 565 7 453 -67 499 -24 b 749 163 636 40 696 86 z "},"Ě":{"ha":806,"x_min":0,"x_max":0,"o":"m 732 0 l 732 168 l 307 168 l 307 417 l 732 417 l 732 585 l 307 585 l 307 804 l 732 804 l 732 972 l 108 972 l 108 0 z m 529 1036 l 692 1243 l 581 1326 l 425 1151 l 271 1326 l 156 1243 l 313 1036 z "},"ě":{"ha":817,"x_min":0,"x_max":0,"o":"m 760 317 b 769 410 765 346 769 381 b 417 747 769 604 619 747 b 46 357 207 747 46 578 b 415 -17 46 138 194 -17 b 749 163 572 -17 665 42 l 619 250 b 429 142 572 181 524 142 b 246 317 325 142 260 217 z m 256 451 b 422 593 276 533 328 593 b 568 451 503 593 564 539 z m 518 825 l 676 1058 l 567 1125 l 422 946 l 276 1125 l 164 1058 l 319 825 z "},"Ĝ":{"ha":1101,"x_min":0,"x_max":0,"o":"m 811 393 l 811 247 b 586 157 750 189 665 157 b 281 486 401 157 281 292 b 586 815 281 671 410 815 b 857 678 697 815 789 757 l 994 797 b 586 989 888 921 750 989 b 68 486 300 989 68 771 b 586 -17 68 188 292 -17 b 1010 182 754 -17 908 46 l 1010 561 l 578 561 l 578 393 z m 490 1310 l 328 1103 l 440 1019 l 596 1194 l 750 1019 l 864 1103 l 707 1310 z "},"ĝ":{"ha":889,"x_min":0,"x_max":0,"o":"m 799 731 l 628 731 l 611 644 b 389 747 558 721 463 747 b 46 376 190 747 46 581 b 386 0 46 165 193 0 b 601 93 457 0 547 24 l 601 26 b 424 -146 601 -90 526 -146 b 165 -53 351 -146 249 -115 l 93 -215 b 431 -315 196 -283 318 -315 b 753 -156 564 -315 689 -267 b 799 39 783 -104 799 -40 z m 601 265 b 429 169 558 193 490 169 b 247 371 317 169 247 264 b 432 578 247 472 306 578 b 601 499 493 578 551 557 z m 326 1110 l 168 876 l 279 810 l 424 989 l 569 810 l 681 876 l 525 1110 z "},"Ğ":{"ha":1101,"x_min":0,"x_max":0,"o":"m 811 393 l 811 247 b 586 157 750 189 665 157 b 281 486 401 157 281 292 b 586 815 281 671 410 815 b 857 678 697 815 789 757 l 994 797 b 586 989 888 921 750 989 b 68 486 300 989 68 771 b 586 -17 68 188 292 -17 b 1010 182 754 -17 908 46 l 1010 561 l 578 561 l 578 393 z m 367 1263 l 367 1246 b 596 1029 367 1119 468 1029 b 825 1246 724 1029 825 1119 l 825 1263 l 685 1263 b 686 1244 686 1256 686 1250 b 596 1158 686 1194 647 1158 b 510 1244 544 1158 510 1194 b 511 1263 510 1250 510 1256 z "},"ğ":{"ha":889,"x_min":0,"x_max":0,"o":"m 799 731 l 628 731 l 611 644 b 389 747 558 721 463 747 b 46 376 190 747 46 581 b 386 0 46 165 193 0 b 601 93 457 0 547 24 l 601 26 b 424 -146 601 -90 526 -146 b 165 -53 351 -146 249 -115 l 93 -215 b 431 -315 196 -283 318 -315 b 753 -156 564 -315 689 -267 b 799 39 783 -104 799 -40 z m 601 265 b 429 169 558 193 490 169 b 247 371 317 169 247 264 b 432 578 247 472 306 578 b 601 499 493 578 551 557 z m 658 1065 l 518 1065 b 519 1039 519 1058 519 1044 b 429 943 519 989 481 943 b 340 1039 378 943 340 989 b 342 1065 340 1044 340 1058 l 200 1065 l 200 1042 b 429 814 200 914 301 814 b 658 1042 557 814 658 914 z "},"Ġ":{"ha":1101,"x_min":0,"x_max":0,"o":"m 811 393 l 811 247 b 586 157 750 189 665 157 b 281 486 401 157 281 292 b 586 815 281 671 410 815 b 857 678 697 815 789 757 l 994 797 b 586 989 888 921 750 989 b 68 486 300 989 68 771 b 586 -17 68 188 292 -17 b 1010 182 754 -17 908 46 l 1010 561 l 578 561 l 578 393 z m 678 1058 l 678 1225 l 475 1225 l 475 1058 z "},"ġ":{"ha":889,"x_min":0,"x_max":0,"o":"m 799 731 l 628 731 l 611 644 b 389 747 558 721 463 747 b 46 376 190 747 46 581 b 386 0 46 165 193 0 b 601 93 457 0 547 24 l 601 26 b 424 -146 601 -90 526 -146 b 165 -53 351 -146 249 -115 l 93 -215 b 431 -315 196 -283 318 -315 b 753 -156 564 -315 689 -267 b 799 39 783 -104 799 -40 z m 601 265 b 429 169 558 193 490 169 b 247 371 317 169 247 264 b 432 578 247 472 306 578 b 601 499 493 578 551 557 z m 521 832 l 521 1000 l 324 1000 l 324 832 z "},"Ģ":{"ha":1101,"x_min":0,"x_max":0,"o":"m 811 393 l 811 247 b 586 157 750 189 665 157 b 281 486 401 157 281 292 b 586 815 281 671 410 815 b 857 678 697 815 789 757 l 994 797 b 586 989 888 921 750 989 b 68 486 300 989 68 771 b 586 -17 68 188 292 -17 b 1010 182 754 -17 908 46 l 1010 561 l 578 561 l 578 393 z m 568 -346 l 644 -81 l 468 -81 l 418 -346 z "},"ģ":{"ha":889,"x_min":0,"x_max":0,"o":"m 799 731 l 628 731 l 611 644 b 389 747 558 721 463 747 b 46 376 190 747 46 581 b 386 0 46 165 193 0 b 601 93 457 0 547 24 l 601 26 b 424 -146 601 -90 526 -146 b 165 -53 351 -146 249 -115 l 93 -215 b 431 -315 196 -283 318 -315 b 753 -156 564 -315 689 -267 b 799 39 783 -104 799 -40 z m 601 265 b 429 169 558 193 490 169 b 247 371 317 169 247 264 b 432 578 247 472 306 578 b 601 499 493 578 551 557 z m 415 1071 l 338 804 l 515 804 l 567 1071 z "},"Ĥ":{"ha":1026,"x_min":0,"x_max":0,"o":"m 918 0 l 918 972 l 719 972 l 719 585 l 307 585 l 307 972 l 108 972 l 108 0 l 307 0 l 307 417 l 719 417 l 719 0 z m 408 1310 l 246 1103 l 358 1019 l 514 1194 l 668 1019 l 782 1103 l 625 1310 z "},"ĥ":{"ha":858,"x_min":0,"x_max":0,"o":"m 293 1042 l 96 1042 l 96 0 l 293 0 l 293 485 b 451 578 329 544 393 578 b 549 526 494 578 531 563 b 571 369 569 485 571 424 l 571 0 l 768 0 l 768 379 b 703 651 768 483 760 578 b 508 747 657 710 588 747 b 293 644 433 747 351 715 z m 88 1344 l -75 1138 l 38 1054 l 193 1229 l 347 1054 l 461 1138 l 304 1344 z "},"Ħ":{"ha":1026,"x_min":0,"x_max":0,"o":"m 918 0 l 918 696 l 1036 696 l 1036 831 l 918 831 l 918 972 l 719 972 l 719 831 l 307 831 l 307 972 l 108 972 l 108 831 l -10 831 l -10 696 l 108 696 l 108 0 l 307 0 l 307 417 l 719 417 l 719 0 z m 307 585 l 307 696 l 719 696 l 719 585 z "},"ħ":{"ha":858,"x_min":0,"x_max":0,"o":"m 293 1042 l 96 1042 l 96 947 l 0 947 l 0 813 l 96 813 l 96 0 l 293 0 l 293 485 b 451 578 329 544 393 578 b 549 526 494 578 531 563 b 571 369 569 485 571 424 l 571 0 l 768 0 l 768 379 b 703 651 768 483 760 578 b 508 747 657 710 588 747 b 293 644 433 747 351 715 l 293 813 l 514 813 l 514 947 l 293 947 z "},"Ĩ":{"ha":415,"x_min":0,"x_max":0,"o":"m 307 0 l 307 972 l 108 972 l 108 0 z m 349 1219 b 350 1210 350 1217 350 1213 b 315 1178 350 1189 333 1178 b 114 1249 274 1178 203 1249 b -47 1106 17 1249 -47 1190 b -37 1051 -47 1088 -43 1069 l 75 1064 b 74 1074 74 1067 74 1071 b 108 1106 75 1094 90 1106 b 311 1035 153 1106 221 1035 b 471 1178 407 1035 471 1092 b 463 1232 471 1194 468 1214 z "},"ĩ":{"ha":389,"x_min":0,"x_max":0,"o":"m 293 0 l 293 731 l 96 731 l 96 0 z m 57 836 b 56 846 56 838 56 843 b 90 878 57 867 72 878 b 293 807 133 878 203 807 b 453 950 390 807 453 865 b 444 1003 453 967 450 985 l 332 990 b 333 981 333 989 333 983 b 299 949 332 960 317 949 b 96 1019 256 949 186 1019 b -64 876 -1 1019 -64 961 b -56 824 -64 860 -61 842 z "},"Ī":{"ha":415,"x_min":0,"x_max":0,"o":"m 307 0 l 307 972 l 108 972 l 108 0 z m 461 1072 l 461 1204 l -44 1204 l -44 1072 z "},"ī":{"ha":389,"x_min":0,"x_max":0,"o":"m 293 0 l 293 731 l 96 731 l 96 0 z m 432 846 l 432 982 l -43 982 l -43 846 z "},"Ĭ":{"ha":415,"x_min":0,"x_max":0,"o":"m 307 0 l 307 972 l 108 972 l 108 0 z m -21 1263 l -21 1246 b 208 1029 -21 1119 81 1029 b 438 1246 336 1029 438 1119 l 438 1263 l 297 1263 b 299 1244 299 1256 299 1250 b 208 1158 299 1194 260 1158 b 122 1244 157 1158 122 1194 b 124 1263 122 1250 122 1256 z "},"ĭ":{"ha":389,"x_min":0,"x_max":0,"o":"m 293 0 l 293 731 l 96 731 l 96 0 z m 424 1065 l 283 1065 b 285 1039 285 1058 285 1044 b 194 943 285 989 246 943 b 106 1039 143 943 106 989 b 107 1065 106 1044 106 1058 l -35 1065 l -35 1042 b 194 814 -35 914 67 814 b 424 1042 322 814 424 914 z "},"Į":{"ha":415,"x_min":0,"x_max":0,"o":"m 108 7 b -8 -167 36 -28 -8 -93 b 179 -315 -8 -254 75 -315 b 333 -274 240 -315 297 -297 l 288 -165 b 222 -183 267 -176 243 -183 b 153 -128 174 -183 153 -160 b 307 0 153 -62 215 -21 l 307 972 l 108 972 z "},"į":{"ha":389,"x_min":0,"x_max":0,"o":"m 293 832 l 293 1000 l 96 1000 l 96 832 z m 96 7 b -21 -167 24 -28 -21 -93 b 167 -315 -21 -254 63 -315 b 321 -274 228 -315 285 -297 l 275 -165 b 210 -183 254 -176 231 -183 b 142 -128 161 -183 142 -160 b 293 0 142 -62 203 -21 l 293 731 l 96 731 z "},"İ":{"ha":415,"x_min":0,"x_max":0,"o":"m 308 1058 l 308 1225 l 107 1225 l 107 1058 z m 307 0 l 307 972 l 108 972 l 108 0 z "},"ı":{"ha":389,"x_min":0,"x_max":0,"o":"m 293 0 l 293 731 l 96 731 l 96 0 z "},"Ĳ":{"ha":936,"x_min":0,"x_max":0,"o":"m 307 0 l 307 972 l 108 972 l 108 0 z m 840 972 l 642 972 l 642 282 b 628 186 642 242 640 208 b 561 157 617 168 597 157 b 465 185 525 157 497 167 l 403 28 b 585 -17 461 -1 535 -17 b 778 49 675 -17 738 6 b 840 258 822 96 840 167 z "},"ĳ":{"ha":786,"x_min":0,"x_max":0,"o":"m 293 0 l 293 731 l 96 731 l 96 0 z m 293 832 l 293 1000 l 96 1000 l 96 832 z m 690 832 l 690 1000 l 493 1000 l 493 832 z m 690 731 l 493 731 l 493 -35 b 419 -146 493 -96 488 -146 b 335 -128 388 -146 360 -139 l 282 -285 b 440 -315 331 -304 383 -315 b 643 -232 540 -315 606 -285 b 690 -51 676 -187 690 -128 z "},"Ĵ":{"ha":472,"x_min":0,"x_max":0,"o":"m 376 972 l 178 972 l 178 282 b 164 186 178 242 176 208 b 97 157 153 168 133 157 b 1 185 61 157 33 167 l -61 28 b 121 -17 -3 -1 71 -17 b 314 49 211 -17 274 6 b 376 258 358 96 376 167 z m 171 1310 l 8 1103 l 121 1019 l 276 1194 l 431 1019 l 544 1103 l 388 1310 z "},"ĵ":{"ha":399,"x_min":0,"x_max":0,"o":"m 303 731 l 104 731 l 104 -36 b 31 -147 104 -97 99 -147 b -54 -129 -1 -147 -29 -140 l -107 -285 b 51 -315 -58 -304 -6 -315 b 256 -232 153 -315 218 -285 b 303 -51 289 -187 303 -128 z m 104 1110 l -54 876 l 57 810 l 201 989 l 347 810 l 458 876 l 303 1110 z "},"Ķ":{"ha":889,"x_min":0,"x_max":0,"o":"m 875 972 l 635 972 l 307 574 l 307 972 l 108 972 l 108 0 l 307 0 l 307 297 l 411 421 l 651 0 l 883 0 l 546 579 z m 456 -346 l 532 -81 l 356 -81 l 306 -346 z "},"ķ":{"ha":771,"x_min":0,"x_max":0,"o":"m 774 0 l 496 425 l 757 731 l 532 731 l 296 433 l 293 433 l 293 1042 l 96 1042 l 96 0 l 293 0 l 293 189 l 364 271 l 532 0 z m 392 -346 l 468 -81 l 292 -81 l 242 -346 z "},"ĸ":{"ha":771,"x_min":0,"x_max":0,"o":"m 96 731 l 96 0 l 293 0 l 293 189 l 364 271 l 532 0 l 774 0 l 496 425 l 757 731 l 532 731 l 296 433 l 293 433 l 293 731 z "},"Ĺ":{"ha":711,"x_min":0,"x_max":0,"o":"m 706 0 l 706 168 l 307 168 l 307 972 l 108 972 l 108 0 z m 456 1196 l 353 1331 l 114 1131 l 203 1018 z "},"ĺ":{"ha":389,"x_min":0,"x_max":0,"o":"m 293 1042 l 96 1042 l 96 0 l 293 0 z m 425 1257 l 322 1392 l 83 1192 l 172 1079 z "},"Ļ":{"ha":711,"x_min":0,"x_max":0,"o":"m 706 0 l 706 168 l 307 168 l 307 972 l 108 972 l 108 0 z m 426 -346 l 503 -81 l 326 -81 l 276 -346 z "},"ļ":{"ha":389,"x_min":0,"x_max":0,"o":"m 293 1042 l 96 1042 l 96 0 l 293 0 z m 197 -346 l 274 -81 l 97 -81 l 47 -346 z "},"Ľ":{"ha":711,"x_min":0,"x_max":0,"o":"m 706 0 l 706 168 l 307 168 l 307 972 l 108 972 l 108 0 z m 604 671 l 683 972 l 500 972 l 439 671 z "},"ľ":{"ha":490,"x_min":0,"x_max":0,"o":"m 293 1042 l 96 1042 l 96 0 l 293 0 z m 501 740 l 581 1042 l 397 1042 l 336 740 z "},"Ŀ":{"ha":729,"x_min":0,"x_max":0,"o":"m 706 0 l 706 168 l 307 168 l 307 972 l 108 972 l 108 0 z m 722 433 l 722 600 l 519 600 l 519 433 z "},"ŀ":{"ha":567,"x_min":0,"x_max":0,"o":"m 293 1042 l 96 1042 l 96 0 l 293 0 z m 576 439 l 576 606 l 374 606 l 374 439 z "},"Ł":{"ha":711,"x_min":0,"x_max":0,"o":"m 706 0 l 706 168 l 307 168 l 307 442 l 503 569 l 503 758 l 307 631 l 307 972 l 108 972 l 108 508 l -10 432 l -10 243 l 108 319 l 108 0 z "},"ł":{"ha":389,"x_min":0,"x_max":0,"o":"m 293 1042 l 96 1042 l 96 575 l 1 515 l 1 324 l 96 385 l 96 0 l 293 0 l 293 504 l 389 565 l 389 757 l 293 696 z "},"Ń":{"ha":1039,"x_min":0,"x_max":0,"o":"m 932 0 l 932 972 l 733 972 l 733 363 l 283 972 l 108 972 l 108 0 l 307 0 l 307 608 l 753 0 z m 749 1196 l 646 1331 l 407 1131 l 496 1018 z "},"ń":{"ha":858,"x_min":0,"x_max":0,"o":"m 96 731 l 96 0 l 293 0 l 293 485 b 451 578 329 544 393 578 b 549 526 494 578 531 563 b 571 369 569 485 571 424 l 571 0 l 768 0 l 768 379 b 703 651 768 483 760 578 b 508 747 657 710 588 747 b 282 631 428 747 340 713 l 267 731 z m 675 1042 l 542 1147 l 357 889 l 471 803 z "},"Ņ":{"ha":1039,"x_min":0,"x_max":0,"o":"m 932 0 l 932 972 l 733 972 l 733 363 l 283 972 l 108 972 l 108 0 l 307 0 l 307 608 l 753 0 z m 546 -346 l 622 -81 l 446 -81 l 396 -346 z "},"ņ":{"ha":858,"x_min":0,"x_max":0,"o":"m 96 731 l 96 0 l 293 0 l 293 485 b 451 578 329 544 393 578 b 549 526 494 578 531 563 b 571 369 569 485 571 424 l 571 0 l 768 0 l 768 379 b 703 651 768 483 760 578 b 508 747 657 710 588 747 b 282 631 428 747 340 713 l 267 731 z m 428 -346 l 504 -81 l 328 -81 l 278 -346 z "},"Ň":{"ha":1039,"x_min":0,"x_max":0,"o":"m 932 0 l 932 972 l 733 972 l 733 363 l 283 972 l 108 972 l 108 0 l 307 0 l 307 608 l 753 0 z m 638 1036 l 800 1243 l 689 1326 l 533 1151 l 379 1326 l 264 1243 l 421 1036 z "},"ň":{"ha":858,"x_min":0,"x_max":0,"o":"m 96 731 l 96 0 l 293 0 l 293 485 b 451 578 329 544 393 578 b 549 526 494 578 531 563 b 571 369 569 485 571 424 l 571 0 l 768 0 l 768 379 b 703 651 768 483 760 578 b 508 747 657 710 588 747 b 282 631 428 747 340 713 l 267 731 z m 556 825 l 714 1058 l 604 1125 l 460 946 l 314 1125 l 201 1058 l 357 825 z "},"ŉ":{"ha":919,"x_min":0,"x_max":0,"o":"m 132 761 l 217 1081 l 28 1081 l -37 761 z m 157 731 l 157 0 l 354 0 l 354 485 b 513 578 390 544 454 578 b 610 526 556 578 592 563 b 632 369 631 485 632 424 l 632 0 l 829 0 l 829 379 b 764 651 829 483 821 578 b 569 747 718 710 649 747 b 343 631 489 747 401 713 l 328 731 z "},"Ŋ":{"ha":1039,"x_min":0,"x_max":0,"o":"m 932 -39 l 932 972 l 732 972 l 732 363 l 283 972 l 108 972 l 108 0 l 307 0 l 307 608 l 732 28 l 732 -15 b 718 -111 732 -56 731 -89 b 653 -140 707 -129 688 -140 b 557 -112 617 -140 589 -131 l 494 -269 b 676 -314 553 -299 626 -314 b 869 -249 767 -314 829 -292 b 932 -39 914 -201 932 -131 z "},"ŋ":{"ha":858,"x_min":0,"x_max":0,"o":"m 96 731 l 96 0 l 293 0 l 293 485 b 451 578 329 544 393 578 b 549 526 494 578 531 563 b 571 369 569 485 571 424 l 571 -35 b 497 -146 571 -96 565 -146 b 413 -128 465 -146 438 -139 l 360 -285 b 518 -315 408 -304 461 -315 b 721 -232 618 -315 683 -285 b 768 -51 754 -187 768 -128 l 768 379 b 703 651 768 483 760 578 b 508 747 657 710 588 747 b 282 631 428 747 340 713 l 267 731 z "},"Ō":{"ha":1154,"x_min":0,"x_max":0,"o":"m 874 486 b 578 157 874 301 749 157 b 281 486 406 157 281 301 b 578 815 281 671 406 815 b 874 486 749 815 874 671 z m 1086 486 b 578 989 1086 764 865 989 b 68 486 289 989 68 764 b 578 -17 68 208 289 -17 b 1086 486 865 -17 1086 208 z m 831 1072 l 831 1204 l 325 1204 l 325 1072 z "},"ō":{"ha":857,"x_min":0,"x_max":0,"o":"m 429 747 b 46 365 206 747 46 581 b 429 -17 46 150 206 -17 b 811 365 651 -17 811 150 b 429 747 811 581 651 747 z m 610 365 b 429 153 610 246 538 153 b 247 365 321 153 247 246 b 429 578 247 485 321 578 b 610 365 538 578 610 485 z m 667 846 l 667 982 l 192 982 l 192 846 z "},"Ŏ":{"ha":1154,"x_min":0,"x_max":0,"o":"m 874 486 b 578 157 874 301 749 157 b 281 486 406 157 281 301 b 578 815 281 671 406 815 b 874 486 749 815 874 671 z m 1086 486 b 578 989 1086 764 865 989 b 68 486 289 989 68 764 b 578 -17 68 208 289 -17 b 1086 486 865 -17 1086 208 z m 349 1263 l 349 1246 b 578 1029 349 1119 450 1029 b 807 1246 706 1029 807 1119 l 807 1263 l 667 1263 b 668 1244 668 1256 668 1250 b 578 1158 668 1194 629 1158 b 492 1244 526 1158 492 1194 b 493 1263 492 1250 492 1256 z "},"ŏ":{"ha":857,"x_min":0,"x_max":0,"o":"m 429 747 b 46 365 206 747 46 581 b 429 -17 46 150 206 -17 b 811 365 651 -17 811 150 b 429 747 811 581 651 747 z m 610 365 b 429 153 610 246 538 153 b 247 365 321 153 247 246 b 429 578 247 485 321 578 b 610 365 538 578 610 485 z m 658 1065 l 518 1065 b 519 1039 519 1058 519 1044 b 429 943 519 989 481 943 b 340 1039 378 943 340 989 b 342 1065 340 1044 340 1058 l 200 1065 l 200 1042 b 429 814 200 914 301 814 b 658 1042 557 814 658 914 z "},"Ő":{"ha":1154,"x_min":0,"x_max":0,"o":"m 874 486 b 578 157 874 301 749 157 b 281 486 406 157 281 301 b 578 815 281 671 406 815 b 874 486 749 815 874 671 z m 1086 486 b 578 989 1086 764 865 989 b 68 486 289 989 68 764 b 578 -17 68 208 289 -17 b 1086 486 865 -17 1086 208 z m 990 1192 l 888 1326 l 654 1131 l 743 1018 z m 651 1196 l 551 1325 l 313 1125 l 399 1018 z "},"ő":{"ha":857,"x_min":0,"x_max":0,"o":"m 429 747 b 46 365 206 747 46 581 b 429 -17 46 150 206 -17 b 811 365 651 -17 811 150 b 429 747 811 581 651 747 z m 610 365 b 429 153 610 246 538 153 b 247 365 321 153 247 246 b 429 578 247 485 321 578 b 610 365 538 578 610 485 z m 547 1051 l 415 1153 l 232 892 l 343 813 z m 825 1038 l 692 1143 l 511 889 l 625 803 z "},"Œ":{"ha":1467,"x_min":0,"x_max":0,"o":"m 1392 0 l 1392 168 l 968 168 l 968 417 l 1392 417 l 1392 585 l 968 585 l 968 804 l 1392 804 l 1392 972 l 768 972 l 768 946 b 578 989 710 972 644 989 b 68 486 289 989 68 764 b 578 -17 68 208 289 -17 b 768 26 643 -17 708 0 l 768 0 z m 578 157 b 281 486 406 157 281 301 b 578 815 281 671 406 815 b 768 749 651 815 718 792 l 768 224 b 578 157 718 181 651 157 z "},"œ":{"ha":1376,"x_min":0,"x_max":0,"o":"m 1319 317 b 1329 410 1325 346 1329 381 b 976 747 1329 604 1179 747 b 708 622 865 747 772 700 b 429 747 644 700 547 747 b 46 365 206 747 46 581 b 429 -17 46 150 206 -17 b 703 100 543 -17 638 28 b 975 -17 764 26 857 -17 b 1308 163 1132 -17 1225 42 l 1179 250 b 989 142 1132 181 1083 142 b 806 317 885 142 819 217 z m 610 365 b 429 153 610 246 538 153 b 247 365 321 153 247 246 b 429 578 247 485 321 578 b 610 365 538 578 610 485 z m 815 451 b 982 593 836 533 888 593 b 1128 451 1063 593 1124 539 z "},"Ŕ":{"ha":881,"x_min":0,"x_max":0,"o":"m 108 972 l 108 0 l 307 0 l 307 388 l 342 388 l 608 0 l 858 0 b 561 410 792 90 647 289 b 772 681 669 446 772 529 b 417 972 772 892 574 972 z m 307 804 l 411 804 b 560 676 500 804 560 753 b 385 556 560 592 485 556 l 307 556 z m 632 1196 l 529 1331 l 290 1131 l 379 1018 z "},"ŕ":{"ha":519,"x_min":0,"x_max":0,"o":"m 267 731 l 96 731 l 96 0 l 293 0 l 293 494 b 431 575 322 543 374 575 b 500 558 456 575 479 569 l 547 731 b 453 747 521 740 489 747 b 282 633 381 747 324 701 z m 533 1042 l 400 1147 l 215 889 l 329 803 z "},"Ŗ":{"ha":881,"x_min":0,"x_max":0,"o":"m 108 972 l 108 0 l 307 0 l 307 388 l 342 388 l 608 0 l 858 0 b 561 410 792 90 647 289 b 772 681 669 446 772 529 b 417 972 772 892 574 972 z m 307 804 l 411 804 b 560 676 500 804 560 753 b 385 556 560 592 485 556 l 307 556 z m 446 -346 l 522 -81 l 346 -81 l 296 -346 z "},"ŗ":{"ha":519,"x_min":0,"x_max":0,"o":"m 267 731 l 96 731 l 96 0 l 293 0 l 293 494 b 431 575 322 543 374 575 b 500 558 456 575 479 569 l 547 731 b 453 747 521 740 489 747 b 282 633 381 747 324 701 z m 197 -346 l 274 -81 l 97 -81 l 47 -346 z "},"Ř":{"ha":881,"x_min":0,"x_max":0,"o":"m 108 972 l 108 0 l 307 0 l 307 388 l 342 388 l 608 0 l 858 0 b 561 410 792 90 647 289 b 772 681 669 446 772 529 b 417 972 772 892 574 972 z m 307 804 l 411 804 b 560 676 500 804 560 753 b 385 556 560 592 485 556 l 307 556 z m 500 1036 l 663 1243 l 551 1326 l 396 1151 l 242 1326 l 126 1243 l 283 1036 z "},"ř":{"ha":519,"x_min":0,"x_max":0,"o":"m 267 731 l 96 731 l 96 0 l 293 0 l 293 494 b 431 575 322 543 374 575 b 500 558 456 575 479 569 l 547 731 b 453 747 521 740 489 747 b 282 633 381 747 324 701 z m 417 825 l 575 1058 l 465 1125 l 321 946 l 175 1125 l 63 1058 l 218 825 z "},"Ś":{"ha":865,"x_min":0,"x_max":0,"o":"m 650 732 l 764 874 b 442 989 665 949 567 989 b 124 717 281 989 124 901 b 392 428 124 531 265 475 b 579 276 490 392 579 360 b 425 153 579 190 503 153 b 183 275 324 153 263 199 l 51 146 b 424 -17 157 40 274 -17 b 792 285 593 -17 792 74 b 489 600 792 489 626 553 b 322 722 414 626 322 647 b 449 819 322 786 382 819 b 650 732 524 819 596 778 z m 704 1196 l 601 1331 l 363 1131 l 451 1018 z "},"ś":{"ha":668,"x_min":0,"x_max":0,"o":"m 601 651 b 349 747 533 715 446 747 b 88 524 215 747 88 672 b 271 308 88 396 183 346 b 410 203 343 276 410 254 b 317 139 410 158 357 139 b 144 225 246 139 200 171 l 32 108 b 326 -17 113 28 213 -17 b 607 218 468 -17 607 57 b 393 443 607 357 488 404 b 278 538 332 468 278 492 b 349 593 278 572 311 593 b 493 532 404 593 456 565 z m 606 1042 l 472 1147 l 288 889 l 401 803 z "},"Ŝ":{"ha":865,"x_min":0,"x_max":0,"o":"m 650 732 l 764 874 b 442 989 665 949 567 989 b 124 717 281 989 124 901 b 392 428 124 531 265 475 b 579 276 490 392 579 360 b 425 153 579 190 503 153 b 183 275 324 153 263 199 l 51 146 b 424 -17 157 40 274 -17 b 792 285 593 -17 792 74 b 489 600 792 489 626 553 b 322 722 414 626 322 647 b 449 819 322 786 382 819 b 650 732 524 819 596 778 z m 344 1310 l 182 1103 l 294 1019 l 450 1194 l 604 1019 l 718 1103 l 561 1310 z "},"ŝ":{"ha":668,"x_min":0,"x_max":0,"o":"m 601 651 b 349 747 533 715 446 747 b 88 524 215 747 88 672 b 271 308 88 396 183 346 b 410 203 343 276 410 254 b 317 139 410 158 357 139 b 144 225 246 139 200 171 l 32 108 b 326 -17 113 28 213 -17 b 607 218 468 -17 607 57 b 393 443 607 357 488 404 b 278 538 332 468 278 492 b 349 593 278 572 311 593 b 493 532 404 593 456 565 z m 253 1110 l 94 876 l 206 810 l 350 989 l 496 810 l 607 876 l 451 1110 z "},"Ş":{"ha":846,"x_min":0,"x_max":0,"o":"m 650 732 l 764 874 b 442 988 665 949 567 988 b 124 717 281 988 124 901 b 392 428 124 531 265 475 b 579 276 490 392 579 360 b 425 153 579 190 503 153 b 183 275 324 153 263 199 l 51 146 b 340 -10 136 60 229 7 l 288 -126 l 390 -179 b 442 -151 404 -158 421 -151 b 493 -207 472 -151 493 -179 b 442 -258 493 -236 472 -258 b 385 -214 413 -258 396 -240 l 290 -260 b 450 -357 326 -325 379 -357 b 610 -204 542 -357 610 -282 b 479 -64 610 -122 550 -64 b 415 -85 456 -64 433 -71 l 414 -85 l 440 -17 b 792 285 606 -11 792 81 b 489 600 792 489 626 553 b 322 722 414 626 322 647 b 449 819 322 786 382 819 b 650 732 524 819 596 778 z "},"ş":{"ha":668,"x_min":0,"x_max":0,"o":"m 601 651 b 349 747 533 715 446 747 b 88 524 215 747 88 672 b 271 308 88 396 183 346 b 410 203 343 276 410 254 b 317 139 410 158 357 139 b 144 225 246 139 200 171 l 32 108 b 240 -7 92 49 161 8 l 188 -128 l 290 -179 b 340 -151 303 -158 319 -151 b 392 -207 371 -151 392 -178 b 340 -258 392 -236 372 -258 b 285 -214 313 -258 296 -240 l 189 -260 b 350 -357 226 -325 278 -357 b 510 -204 440 -357 510 -282 b 379 -64 510 -122 446 -64 b 315 -85 358 -64 336 -69 l 314 -85 l 339 -17 b 607 218 476 -12 607 61 b 393 443 607 357 488 404 b 278 538 332 468 278 492 b 349 593 278 572 311 593 b 493 532 404 593 456 565 z "},"Š":{"ha":865,"x_min":0,"x_max":0,"o":"m 650 732 l 764 874 b 442 989 665 949 567 989 b 124 717 281 989 124 901 b 392 428 124 531 265 475 b 579 276 490 392 579 360 b 425 153 579 190 503 153 b 183 275 324 153 263 199 l 51 146 b 424 -17 157 40 274 -17 b 792 285 593 -17 792 74 b 489 600 792 489 626 553 b 322 722 414 626 322 647 b 449 819 322 786 382 819 b 650 732 524 819 596 778 z m 557 1036 l 719 1243 l 608 1326 l 453 1151 l 299 1326 l 183 1243 l 340 1036 z "},"š":{"ha":668,"x_min":0,"x_max":0,"o":"m 601 651 b 349 747 533 715 446 747 b 88 524 215 747 88 672 b 271 308 88 396 183 346 b 410 203 343 276 410 254 b 317 139 410 158 357 139 b 144 225 246 139 200 171 l 32 108 b 326 -17 113 28 213 -17 b 607 218 468 -17 607 57 b 393 443 607 357 488 404 b 278 538 332 468 278 492 b 349 593 278 572 311 593 b 493 532 404 593 456 565 z m 456 825 l 614 1058 l 504 1125 l 360 946 l 214 1125 l 101 1058 l 257 825 z "},"Ș":{"ha":865,"x_min":0,"x_max":0,"o":"m 650 732 l 764 874 b 442 989 665 949 567 989 b 124 717 281 989 124 901 b 392 428 124 531 265 475 b 579 276 490 392 579 360 b 425 153 579 190 503 153 b 183 275 324 153 263 199 l 51 146 b 424 -17 157 40 274 -17 b 792 285 593 -17 792 74 b 489 600 792 489 626 553 b 322 722 414 626 322 647 b 449 819 322 786 382 819 b 650 732 524 819 596 778 z m 393 -346 l 469 -81 l 293 -81 l 243 -346 z "},"ș":{"ha":668,"x_min":0,"x_max":0,"o":"m 601 651 b 349 747 533 715 446 747 b 88 524 215 747 88 672 b 271 308 88 396 183 346 b 410 203 343 276 410 254 b 317 139 410 158 357 139 b 144 225 246 139 200 171 l 32 108 b 326 -17 113 28 213 -17 b 607 218 468 -17 607 57 b 393 443 607 357 488 404 b 278 538 332 468 278 492 b 349 593 278 572 311 593 b 493 532 404 593 456 565 z m 308 -346 l 385 -81 l 208 -81 l 158 -346 z "},"Ţ":{"ha":682,"x_min":0,"x_max":0,"o":"m 671 804 l 671 972 l 11 972 l 11 804 l 242 804 l 242 0 l 288 0 l 232 -126 l 333 -179 b 386 -151 347 -158 365 -151 b 436 -207 415 -151 436 -179 b 385 -258 436 -236 415 -258 b 329 -214 357 -258 339 -240 l 233 -260 b 394 -357 271 -325 322 -357 b 553 -204 485 -357 553 -282 b 424 -64 553 -122 493 -64 b 358 -85 400 -64 378 -71 l 357 -85 l 390 0 l 440 0 l 440 804 z "},"ţ":{"ha":525,"x_min":0,"x_max":0,"o":"m 488 567 l 488 731 l 301 731 l 301 892 l 135 892 l 104 731 l 17 731 l 17 567 l 104 567 l 104 263 b 118 140 104 219 107 176 b 215 11 133 83 167 39 l 156 -128 l 257 -179 b 308 -151 271 -158 288 -151 b 360 -207 338 -151 360 -178 b 308 -258 360 -236 339 -258 b 253 -214 281 -258 263 -240 l 157 -260 b 318 -357 194 -325 246 -357 b 476 -204 408 -357 476 -282 b 347 -64 476 -122 414 -64 b 282 -85 326 -64 303 -69 l 281 -85 l 307 -15 b 335 -17 317 -15 325 -17 b 508 26 392 -17 461 -1 l 447 172 b 368 151 422 160 399 151 b 304 221 326 151 310 178 b 301 283 301 242 301 261 l 301 567 z "},"Ť":{"ha":682,"x_min":0,"x_max":0,"o":"m 671 804 l 671 972 l 11 972 l 11 804 l 242 804 l 242 0 l 440 0 l 440 804 z m 447 1036 l 610 1243 l 499 1326 l 343 1151 l 189 1326 l 74 1243 l 231 1036 z "},"ť":{"ha":525,"x_min":0,"x_max":0,"o":"m 488 567 l 488 731 l 301 731 l 301 892 l 135 892 l 104 731 l 17 731 l 17 567 l 104 567 l 104 263 b 118 140 104 219 107 176 b 335 -17 144 46 221 -17 b 508 26 392 -17 461 -1 l 447 172 b 368 151 422 160 399 151 b 304 221 326 151 310 178 b 301 283 301 242 301 261 l 301 567 z m 518 817 l 597 1118 l 414 1118 l 353 817 z "},"Ŧ":{"ha":682,"x_min":0,"x_max":0,"o":"m 671 804 l 671 972 l 11 972 l 11 804 l 242 804 l 242 579 l 99 579 l 99 421 l 242 421 l 242 0 l 440 0 l 440 421 l 583 421 l 583 579 l 440 579 l 440 804 z "},"ŧ":{"ha":472,"x_min":0,"x_max":0,"o":"m 489 308 l 489 464 l 303 464 l 303 567 l 489 567 l 489 731 l 303 731 l 303 892 l 135 892 l 104 731 l 17 731 l 17 567 l 104 567 l 104 464 l 15 464 l 15 308 l 104 308 l 104 263 b 118 140 104 219 107 176 b 336 -15 144 46 221 -15 b 510 26 393 -15 463 -1 l 449 172 b 369 151 424 160 400 151 b 306 221 328 151 311 178 b 303 283 303 242 303 261 l 303 308 z "},"Ț":{"ha":683,"x_min":0,"x_max":0,"o":"m 671 804 l 671 972 l 11 972 l 11 804 l 242 804 l 242 0 l 440 0 l 440 804 z m 343 -346 l 419 -81 l 243 -81 l 193 -346 z "},"ț":{"ha":525,"x_min":0,"x_max":0,"o":"m 488 567 l 488 731 l 301 731 l 301 892 l 135 892 l 104 731 l 17 731 l 17 567 l 104 567 l 104 263 b 118 140 104 219 107 176 b 335 -17 144 46 221 -17 b 508 26 392 -17 461 -1 l 447 172 b 368 151 422 160 399 151 b 304 221 326 151 310 178 b 301 283 301 242 301 261 l 301 567 z m 276 -346 l 353 -81 l 176 -81 l 126 -346 z "},"Ũ":{"ha":994,"x_min":0,"x_max":0,"o":"m 889 972 l 690 972 l 690 432 b 497 157 690 246 615 157 b 304 432 379 157 304 246 l 304 972 l 106 972 l 106 458 b 494 -17 106 153 222 -17 b 889 458 772 -17 889 153 z m 635 1219 b 636 1210 636 1217 636 1213 b 601 1178 636 1189 619 1178 b 400 1249 560 1178 489 1249 b 239 1106 303 1249 239 1190 b 249 1051 239 1088 243 1069 l 361 1064 b 360 1074 360 1067 360 1071 b 394 1106 361 1094 376 1106 b 597 1035 439 1106 507 1035 b 757 1178 693 1035 757 1092 b 749 1232 757 1194 754 1214 z "},"ũ":{"ha":858,"x_min":0,"x_max":0,"o":"m 761 0 l 761 731 l 564 731 l 564 246 b 406 153 528 186 464 153 b 308 204 363 153 326 168 b 286 361 288 246 286 307 l 286 731 l 89 731 l 89 351 b 154 79 89 247 97 153 b 349 -17 200 21 269 -17 b 575 100 429 -17 517 18 l 590 0 z m 304 836 b 303 846 303 838 303 843 b 338 878 304 867 319 878 b 540 807 381 878 450 807 b 700 950 638 807 700 865 b 692 1003 700 967 697 985 l 579 990 b 581 981 581 989 581 983 b 546 949 579 960 564 949 b 343 1019 503 949 433 1019 b 183 876 246 1019 183 961 b 192 824 183 860 186 842 z "},"Ū":{"ha":994,"x_min":0,"x_max":0,"o":"m 889 972 l 690 972 l 690 432 b 497 157 690 246 615 157 b 304 432 379 157 304 246 l 304 972 l 106 972 l 106 458 b 494 -17 106 153 222 -17 b 889 458 772 -17 889 153 z m 750 1072 l 750 1204 l 244 1204 l 244 1072 z "},"ū":{"ha":858,"x_min":0,"x_max":0,"o":"m 761 0 l 761 731 l 564 731 l 564 246 b 406 153 528 186 464 153 b 308 204 363 153 326 168 b 286 361 288 246 286 307 l 286 731 l 89 731 l 89 351 b 154 79 89 247 97 153 b 349 -17 200 21 269 -17 b 575 100 429 -17 517 18 l 590 0 z m 664 846 l 664 982 l 189 982 l 189 846 z "},"Ŭ":{"ha":994,"x_min":0,"x_max":0,"o":"m 889 972 l 690 972 l 690 432 b 497 157 690 246 615 157 b 304 432 379 157 304 246 l 304 972 l 106 972 l 106 458 b 494 -17 106 153 222 -17 b 889 458 772 -17 889 153 z m 268 1263 l 268 1246 b 497 1029 268 1119 369 1029 b 726 1246 625 1029 726 1119 l 726 1263 l 586 1263 b 588 1244 588 1256 588 1250 b 497 1158 588 1194 549 1158 b 411 1244 446 1158 411 1194 b 413 1263 411 1250 411 1256 z "},"ŭ":{"ha":858,"x_min":0,"x_max":0,"o":"m 761 0 l 761 731 l 564 731 l 564 246 b 406 153 528 186 464 153 b 308 204 363 153 326 168 b 286 361 288 246 286 307 l 286 731 l 89 731 l 89 351 b 154 79 89 247 97 153 b 349 -17 200 21 269 -17 b 575 100 429 -17 517 18 l 590 0 z m 657 1065 l 517 1065 b 518 1039 518 1058 518 1044 b 428 943 518 989 479 943 b 339 1039 376 943 339 989 b 340 1065 339 1044 339 1058 l 199 1065 l 199 1042 b 428 814 199 914 300 814 b 657 1042 556 814 657 914 z "},"Ů":{"ha":994,"x_min":0,"x_max":0,"o":"m 889 972 l 690 972 l 690 432 b 497 157 690 246 615 157 b 304 432 379 157 304 246 l 304 972 l 106 972 l 106 458 b 494 -17 106 153 222 -17 b 889 458 772 -17 889 153 z m 497 1310 b 340 1153 410 1310 340 1240 b 497 996 340 1065 410 996 b 654 1153 585 996 654 1065 b 497 1310 654 1240 585 1310 z m 497 1217 b 561 1153 533 1217 561 1189 b 497 1089 561 1117 533 1089 b 433 1153 461 1089 433 1117 b 497 1217 433 1189 461 1217 z "},"ů":{"ha":858,"x_min":0,"x_max":0,"o":"m 761 0 l 761 731 l 564 731 l 564 246 b 406 153 528 186 464 153 b 308 204 363 153 326 168 b 286 361 288 246 286 307 l 286 731 l 89 731 l 89 351 b 154 79 89 247 97 153 b 349 -17 200 21 269 -17 b 575 100 429 -17 517 18 l 590 0 z m 271 954 b 428 797 271 868 340 797 b 585 954 515 797 585 868 b 428 1111 585 1040 515 1111 b 271 954 340 1111 271 1040 z m 365 954 b 428 1017 365 989 393 1017 b 490 954 463 1017 490 989 b 428 892 490 919 463 892 b 365 954 393 892 365 919 z "},"Ű":{"ha":994,"x_min":0,"x_max":0,"o":"m 889 972 l 690 972 l 690 432 b 497 157 690 246 615 157 b 304 432 379 157 304 246 l 304 972 l 106 972 l 106 458 b 494 -17 106 153 222 -17 b 889 458 772 -17 889 153 z m 896 1192 l 793 1326 l 560 1131 l 649 1018 z m 557 1196 l 457 1325 l 218 1125 l 304 1018 z "},"ű":{"ha":858,"x_min":0,"x_max":0,"o":"m 761 0 l 761 731 l 564 731 l 564 246 b 406 153 528 186 464 153 b 308 204 363 153 326 168 b 286 361 288 246 286 307 l 286 731 l 89 731 l 89 351 b 154 79 89 247 97 153 b 349 -17 200 21 269 -17 b 575 100 429 -17 517 18 l 590 0 z m 533 1051 l 401 1153 l 218 892 l 329 813 z m 811 1038 l 678 1143 l 497 889 l 611 803 z "},"Ų":{"ha":994,"x_min":0,"x_max":0,"o":"m 889 972 l 690 972 l 690 432 b 497 157 690 246 615 157 b 304 432 379 157 304 246 l 304 972 l 106 972 l 106 458 b 454 -15 106 168 211 1 b 381 -167 407 -50 381 -107 b 567 -315 381 -254 463 -315 b 721 -274 628 -315 685 -297 l 675 -165 b 610 -183 654 -176 631 -183 b 542 -115 565 -183 542 -156 b 650 6 542 -61 592 -14 b 889 458 817 61 889 218 z "},"ų":{"ha":858,"x_min":0,"x_max":0,"o":"m 763 731 l 565 731 l 565 246 b 407 153 529 186 465 153 b 310 204 364 153 328 168 b 288 361 289 246 288 307 l 288 731 l 90 731 l 90 351 b 156 79 90 247 99 153 b 350 -17 201 21 271 -17 b 576 100 431 -17 518 18 l 590 7 b 438 -167 486 -32 438 -89 b 624 -315 438 -254 519 -315 b 779 -274 686 -315 742 -297 l 733 -165 b 667 -183 713 -176 688 -183 b 599 -128 618 -183 599 -160 b 763 0 599 -62 672 -21 z "},"Ŵ":{"ha":1311,"x_min":0,"x_max":0,"o":"m 750 972 l 564 972 l 390 350 l 388 350 l 228 972 l 6 972 l 278 0 l 468 0 l 650 639 l 653 639 l 829 0 l 1026 0 l 1306 972 l 1083 972 l 919 350 l 917 350 z m 551 1310 l 389 1103 l 501 1019 l 657 1194 l 811 1019 l 925 1103 l 768 1310 z "},"ŵ":{"ha":1079,"x_min":0,"x_max":0,"o":"m 628 731 l 454 731 l 328 278 l 325 278 l 217 731 l 7 731 l 207 0 l 419 0 l 536 418 l 539 418 l 654 0 l 863 0 l 1072 731 l 867 731 l 751 279 l 747 279 z m 444 1110 l 286 876 l 397 810 l 542 989 l 688 810 l 799 876 l 643 1110 z "},"Ẁ":{"ha":1311,"x_min":0,"x_max":0,"o":"m 750 972 l 564 972 l 390 350 l 388 350 l 228 972 l 6 972 l 278 0 l 468 0 l 650 639 l 653 639 l 829 0 l 1026 0 l 1306 972 l 1083 972 l 919 350 l 917 350 z m 679 1018 l 768 1131 l 529 1331 l 426 1196 z "},"ẁ":{"ha":1079,"x_min":0,"x_max":0,"o":"m 628 731 l 454 731 l 328 278 l 325 278 l 217 731 l 7 731 l 207 0 l 419 0 l 536 418 l 539 418 l 654 0 l 863 0 l 1072 731 l 867 731 l 751 279 l 747 279 z m 504 803 l 618 889 l 433 1147 l 300 1042 z "},"Ẃ":{"ha":1311,"x_min":0,"x_max":0,"o":"m 750 972 l 564 972 l 390 350 l 388 350 l 228 972 l 6 972 l 278 0 l 468 0 l 650 639 l 653 639 l 829 0 l 1026 0 l 1306 972 l 1083 972 l 919 350 l 917 350 z m 908 1196 l 806 1331 l 567 1131 l 656 1018 z "},"ẃ":{"ha":1079,"x_min":0,"x_max":0,"o":"m 628 731 l 454 731 l 328 278 l 325 278 l 217 731 l 7 731 l 207 0 l 419 0 l 536 418 l 539 418 l 654 0 l 863 0 l 1072 731 l 867 731 l 751 279 l 747 279 z m 778 1042 l 644 1147 l 460 889 l 574 803 z "},"Ẅ":{"ha":1311,"x_min":0,"x_max":0,"o":"m 750 972 l 564 972 l 390 350 l 388 350 l 228 972 l 6 972 l 278 0 l 468 0 l 650 639 l 653 639 l 829 0 l 1026 0 l 1306 972 l 1083 972 l 919 350 l 917 350 z m 568 1058 l 568 1225 l 361 1225 l 361 1058 z m 953 1058 l 953 1225 l 746 1225 l 746 1058 z "},"ẅ":{"ha":1079,"x_min":0,"x_max":0,"o":"m 628 731 l 454 731 l 328 278 l 325 278 l 217 731 l 7 731 l 207 0 l 419 0 l 536 418 l 539 418 l 654 0 l 863 0 l 1072 731 l 867 731 l 751 279 l 747 279 z m 474 832 l 474 1000 l 275 1000 l 275 832 z m 808 832 l 808 1000 l 610 1000 l 610 832 z "},"Ỳ":{"ha":844,"x_min":0,"x_max":0,"o":"m 514 0 l 514 401 l 839 972 l 607 972 l 424 622 l 421 622 l 253 972 l 6 972 l 315 407 l 315 0 z m 461 1018 l 550 1131 l 311 1331 l 208 1196 z "},"ỳ":{"ha":738,"x_min":0,"x_max":0,"o":"m 4 731 l 263 43 l 146 -267 l 322 -335 l 733 731 l 519 731 l 369 296 l 367 296 l 219 731 z m 392 803 l 506 889 l 321 1147 l 188 1042 z "},"Ŷ":{"ha":844,"x_min":0,"x_max":0,"o":"m 514 0 l 514 401 l 839 972 l 607 972 l 424 622 l 421 622 l 253 972 l 6 972 l 315 407 l 315 0 z m 318 1310 l 156 1103 l 268 1019 l 424 1194 l 578 1019 l 692 1103 l 535 1310 z "},"ŷ":{"ha":738,"x_min":0,"x_max":0,"o":"m 4 731 l 263 43 l 146 -267 l 322 -335 l 733 731 l 519 731 l 369 296 l 367 296 l 219 731 z m 275 1110 l 117 876 l 228 810 l 372 989 l 518 810 l 629 876 l 474 1110 z "},"Ÿ":{"ha":844,"x_min":0,"x_max":0,"o":"m 514 0 l 514 401 l 839 972 l 607 972 l 424 622 l 421 622 l 251 972 l 6 972 l 314 410 l 314 0 z m 349 1058 l 349 1225 l 142 1225 l 142 1058 z m 717 1058 l 717 1225 l 511 1225 l 511 1058 z "},"Ź":{"ha":781,"x_min":0,"x_max":0,"o":"m 725 871 l 725 972 l 57 972 l 57 804 l 456 804 l 46 106 l 46 0 l 758 0 l 758 168 l 314 168 z m 607 1196 l 504 1331 l 265 1131 l 354 1018 z "},"ź":{"ha":671,"x_min":0,"x_max":0,"o":"m 69 92 l 69 0 l 631 0 l 631 164 l 326 164 l 607 640 l 607 731 l 54 731 l 54 567 l 347 567 z m 542 1042 l 408 1147 l 224 889 l 338 803 z "},"Ż":{"ha":781,"x_min":0,"x_max":0,"o":"m 725 871 l 725 972 l 57 972 l 57 804 l 456 804 l 46 106 l 46 0 l 758 0 l 758 168 l 314 168 z m 474 1058 l 474 1225 l 271 1225 l 271 1058 z "},"ż":{"ha":671,"x_min":0,"x_max":0,"o":"m 69 92 l 69 0 l 631 0 l 631 164 l 326 164 l 607 640 l 607 731 l 54 731 l 54 567 l 347 567 z m 425 832 l 425 1000 l 228 1000 l 228 832 z "},"Ž":{"ha":781,"x_min":0,"x_max":0,"o":"m 725 871 l 725 972 l 57 972 l 57 804 l 456 804 l 46 106 l 46 0 l 758 0 l 758 168 l 314 168 z m 497 1036 l 660 1243 l 549 1326 l 393 1151 l 239 1326 l 124 1243 l 281 1036 z "},"ž":{"ha":671,"x_min":0,"x_max":0,"o":"m 69 92 l 69 0 l 631 0 l 631 164 l 326 164 l 607 640 l 607 731 l 54 731 l 54 567 l 347 567 z m 435 825 l 593 1058 l 483 1125 l 339 946 l 193 1125 l 81 1058 l 236 825 z "},"ſ":{"ha":439,"x_min":0,"x_max":0,"o":"m 517 1015 b 332 1058 460 1040 392 1058 b 92 782 169 1058 92 957 l 92 0 l 285 0 l 285 772 b 368 894 285 846 294 894 b 465 868 403 894 433 885 z "},"ȷ":{"ha":399,"x_min":0,"x_max":0,"o":"m 303 731 l 104 731 l 104 -36 b 31 -147 104 -97 99 -147 b -54 -129 -1 -147 -29 -140 l -107 -285 b 51 -315 -58 -304 -6 -315 b 256 -232 153 -315 218 -285 b 303 -51 289 -187 303 -128 z "},"ﬀ":{"ha":994,"x_min":0,"x_max":0,"o":"m 557 1017 b 375 1058 500 1043 438 1058 b 169 983 275 1058 210 1033 b 117 789 132 938 117 872 l 117 731 l 38 731 l 38 567 l 117 567 l 117 0 l 314 0 l 314 567 l 464 567 l 464 731 l 314 731 l 314 778 b 333 867 314 814 318 846 b 394 889 344 881 363 889 b 496 865 433 889 464 882 z m 1054 1017 b 872 1058 997 1043 935 1058 b 667 983 772 1058 707 1033 b 614 789 629 938 614 872 l 614 731 l 535 731 l 535 567 l 614 567 l 614 0 l 811 0 l 811 567 l 993 567 l 993 731 l 811 731 l 811 778 b 831 867 811 814 815 846 b 892 889 842 881 860 889 b 993 865 931 889 961 882 z "},"ﬁ":{"ha":886,"x_min":0,"x_max":0,"o":"m 501 1039 b 375 1058 460 1051 418 1058 b 169 983 275 1058 210 1033 b 117 789 132 938 117 872 l 117 731 l 38 731 l 38 567 l 117 567 l 117 0 l 314 0 l 314 567 l 496 567 l 496 731 l 314 731 l 314 778 b 333 867 314 814 318 846 b 394 889 344 881 363 889 b 471 876 424 889 447 885 z m 790 0 l 790 731 l 593 731 l 593 0 z m 790 832 l 790 1000 l 593 1000 l 593 832 z "},"ﬂ":{"ha":886,"x_min":0,"x_max":0,"o":"m 790 1042 l 593 1042 l 593 0 l 790 0 z m 501 1039 b 375 1058 460 1051 418 1058 b 169 983 275 1058 210 1033 b 117 789 132 938 117 872 l 117 731 l 38 731 l 38 567 l 117 567 l 117 0 l 314 0 l 314 567 l 496 567 l 496 731 l 314 731 l 314 778 b 333 867 314 814 318 846 b 394 889 344 881 363 889 b 471 876 424 889 447 885 z "},"ﬃ":{"ha":1383,"x_min":0,"x_max":0,"o":"m 1288 0 l 1288 731 l 1090 731 l 1090 0 z m 1288 832 l 1288 1000 l 1090 1000 l 1090 832 z m 557 1017 b 375 1058 500 1043 438 1058 b 169 983 275 1058 210 1033 b 117 789 132 938 117 872 l 117 731 l 38 731 l 38 567 l 117 567 l 117 0 l 314 0 l 314 567 l 464 567 l 464 731 l 314 731 l 314 778 b 333 867 314 814 318 846 b 394 889 344 881 363 889 b 496 865 433 889 464 882 z m 999 1039 b 872 1058 957 1051 915 1058 b 667 983 772 1058 707 1033 b 614 789 629 938 614 872 l 614 731 l 535 731 l 535 567 l 614 567 l 614 0 l 811 0 l 811 567 l 993 567 l 993 731 l 811 731 l 811 778 b 831 867 811 814 815 846 b 892 889 842 881 860 889 b 968 876 921 889 944 885 z "},"ﬄ":{"ha":1383,"x_min":0,"x_max":0,"o":"m 1288 1042 l 1090 1042 l 1090 0 l 1288 0 z m 557 1017 b 375 1058 500 1043 438 1058 b 169 983 275 1058 210 1033 b 117 789 132 938 117 872 l 117 731 l 38 731 l 38 567 l 117 567 l 117 0 l 314 0 l 314 567 l 464 567 l 464 731 l 314 731 l 314 778 b 333 867 314 814 318 846 b 394 889 344 881 363 889 b 496 865 433 889 464 882 z m 999 1039 b 872 1058 957 1051 915 1058 b 667 983 772 1058 707 1033 b 614 789 629 938 614 872 l 614 731 l 535 731 l 535 567 l 614 567 l 614 0 l 811 0 l 811 567 l 993 567 l 993 731 l 811 731 l 811 778 b 831 867 811 814 815 846 b 892 889 842 881 860 889 b 968 876 921 889 944 885 z "},"ﬆ":{"ha":1193,"x_min":0,"x_max":0,"o":"m 601 651 b 349 747 533 715 446 747 b 88 524 215 747 88 672 b 271 308 88 396 183 346 b 410 203 343 276 410 254 b 317 139 410 158 357 139 b 144 225 246 139 200 171 l 32 108 b 326 -17 113 28 213 -17 b 607 218 468 -17 607 57 b 393 443 607 357 488 404 b 278 538 332 468 278 492 b 349 593 278 572 311 593 b 493 532 404 593 456 565 z m 1156 567 l 1156 731 l 969 731 l 969 892 l 803 892 l 772 731 l 685 731 l 685 567 l 772 567 l 772 263 b 786 140 772 219 775 176 b 1003 -17 813 46 889 -17 b 1176 26 1060 -17 1129 -1 l 1115 172 b 1036 151 1090 160 1067 151 b 972 221 994 151 978 178 b 969 283 969 242 969 261 l 969 567 z "},"ˆ":{"ha":500,"x_min":0,"x_max":0,"o":"m 151 1110 l -7 876 l 104 810 l 249 989 l 394 810 l 506 876 l 350 1110 z "},"ˇ":{"ha":500,"x_min":0,"x_max":0,"o":"m 347 825 l 506 1058 l 396 1125 l 251 946 l 106 1125 l -7 1058 l 149 825 z "},"ˉ":{"ha":500,"x_min":0,"x_max":0,"o":"m 488 846 l 488 982 l 13 982 l 13 846 z "},"˘":{"ha":500,"x_min":0,"x_max":0,"o":"m 479 1065 l 339 1065 b 340 1039 340 1058 340 1044 b 250 943 340 989 301 943 b 161 1039 199 943 161 989 b 163 1065 161 1044 161 1058 l 21 1065 l 21 1042 b 250 814 21 914 122 814 b 479 1042 378 814 479 914 z "},"¨":{"ha":500,"x_min":0,"x_max":0,"o":"m 182 832 l 182 1000 l -17 1000 l -17 832 z m 517 832 l 517 1000 l 318 1000 l 318 832 z "},"¯":{"ha":500,"x_min":0,"x_max":0,"o":"m 488 846 l 488 982 l 13 982 l 13 846 z "},"°":{"ha":642,"x_min":0,"x_max":0,"o":"m 317 832 b 407 739 368 832 407 790 b 317 646 407 688 368 646 b 226 739 265 646 226 688 b 317 832 226 790 265 832 z m 317 514 b 542 739 442 514 542 614 b 317 964 542 864 442 964 b 92 739 192 964 92 864 b 317 514 92 614 192 514 z "},"´":{"ha":500,"x_min":0,"x_max":0,"o":"m 465 1042 l 332 1147 l 147 889 l 261 803 z "},"`":{"ha":500,"x_min":0,"x_max":0,"o":"m 238 803 l 351 889 l 167 1147 l 33 1042 z "},"¸":{"ha":556,"x_min":0,"x_max":0,"o":"m 254 11 l 160 29 l 92 -128 l 193 -179 b 244 -151 207 -158 224 -151 b 296 -207 274 -151 296 -178 b 244 -258 296 -236 275 -258 b 189 -214 217 -258 199 -240 l 93 -260 b 254 -357 131 -325 182 -357 b 413 -204 344 -357 413 -282 b 283 -64 413 -122 350 -64 b 218 -85 263 -64 239 -69 l 217 -85 z "},"˙":{"ha":500,"x_min":0,"x_max":0,"o":"m 349 832 l 349 1000 l 151 1000 l 151 832 z "},"˚":{"ha":500,"x_min":0,"x_max":0,"o":"m 93 963 b 250 806 93 876 163 806 b 407 963 338 806 407 876 b 250 1119 407 1049 338 1119 b 93 963 163 1119 93 1049 z m 188 963 b 250 1025 188 997 215 1025 b 313 963 285 1025 313 997 b 250 900 313 928 285 900 b 188 963 215 900 188 928 z "},"˛":{"ha":500,"x_min":0,"x_max":0,"o":"m 231 13 b 76 -167 118 -26 76 -93 b 263 -315 76 -254 158 -315 b 417 -274 325 -315 381 -297 l 372 -165 b 306 -183 350 -176 326 -183 b 238 -128 257 -183 238 -160 b 393 0 238 -62 303 -21 l 393 10 z "},"˜":{"ha":500,"x_min":0,"x_max":0,"o":"m 113 836 b 111 846 111 838 111 843 b 146 878 113 867 128 878 b 349 807 189 878 258 807 b 508 950 446 807 508 865 b 500 1003 508 967 506 985 l 388 990 b 389 981 389 989 389 983 b 354 949 388 960 372 949 b 151 1019 311 949 242 1019 b -8 876 54 1019 -8 961 b 0 824 -8 860 -6 842 z "},"˝":{"ha":500,"x_min":0,"x_max":0,"o":"m 322 1051 l 190 1153 l 7 892 l 118 813 z m 600 1038 l 467 1143 l 286 889 l 400 803 z "},"‰":{"ha":1733,"x_min":0,"x_max":0,"o":"m 1421 465 b 1176 229 1289 465 1176 367 b 1421 -8 1176 90 1289 -8 b 1667 229 1554 -8 1667 90 b 1421 465 1667 367 1554 465 z m 1422 326 b 1511 229 1472 326 1511 286 b 1422 131 1511 171 1472 131 b 1332 229 1369 131 1332 171 b 1422 326 1332 286 1369 326 z m 313 981 b 67 743 179 981 67 882 b 313 507 67 606 179 507 b 557 743 444 507 557 606 b 313 981 557 882 444 981 z m 313 842 b 401 743 364 842 401 801 b 313 646 401 686 364 646 b 222 743 260 646 222 686 b 313 842 222 801 260 842 z m 878 465 b 632 229 744 465 632 367 b 878 -8 632 90 744 -8 b 1122 229 1010 -8 1122 90 b 878 465 1122 367 1010 465 z m 878 326 b 967 229 929 326 967 286 b 878 131 967 171 929 131 b 788 229 825 131 788 171 b 878 326 788 286 825 326 z m 892 997 l 200 49 l 299 -25 l 990 924 z "},"%":{"ha":1189,"x_min":0,"x_max":0,"o":"m 313 981 b 67 743 179 981 67 882 b 313 507 67 606 179 507 b 557 743 444 507 557 606 b 313 981 557 882 444 981 z m 313 842 b 401 743 364 842 401 801 b 313 646 401 686 364 646 b 222 743 260 646 222 686 b 313 842 222 801 260 842 z m 878 465 b 632 229 744 465 632 367 b 878 -8 632 90 744 -8 b 1122 229 1010 -8 1122 90 b 878 465 1122 367 1010 465 z m 878 326 b 967 229 929 326 967 286 b 878 131 967 171 929 131 b 788 229 825 131 788 171 b 878 326 788 286 825 326 z m 892 997 l 200 49 l 299 -25 l 990 924 z "},"⁄":{"ha":207,"x_min":0,"x_max":0,"o":"m 400 997 l -292 49 l -193 -25 l 499 924 z "},"⁰":{"ha":489,"x_min":0,"x_max":0,"o":"m 244 610 b 174 788 199 610 174 667 b 244 967 174 910 199 967 b 317 788 290 967 317 910 b 244 610 317 667 290 610 z m 244 1076 b 26 788 104 1076 26 967 b 244 500 26 610 104 500 b 464 788 385 500 464 610 b 244 1076 464 967 385 1076 z "},"¹":{"ha":318,"x_min":0,"x_max":0,"o":"m 256 510 l 256 1067 l 161 1067 b 35 1000 121 1044 72 1018 l 35 882 b 113 914 57 890 86 901 l 113 510 z "},"²":{"ha":460,"x_min":0,"x_max":0,"o":"m 36 613 l 36 510 l 438 510 l 438 617 l 211 617 b 365 769 263 658 319 714 b 421 918 400 813 421 863 b 218 1076 421 1019 322 1076 b 26 908 117 1076 31 1014 l 171 890 b 224 967 171 933 189 967 b 275 911 254 967 275 946 b 231 808 275 869 253 839 b 36 613 172 738 111 678 z "},"³":{"ha":482,"x_min":0,"x_max":0,"o":"m 158 744 b 203 747 174 746 190 747 b 299 675 256 747 299 722 b 221 610 299 638 267 610 b 131 672 186 610 153 626 l 19 621 b 231 500 51 540 142 500 b 447 667 350 500 447 564 b 342 807 447 719 421 783 b 421 929 399 836 421 886 b 214 1076 421 1021 324 1076 b 29 963 131 1076 57 1038 l 140 913 b 213 967 154 953 182 967 b 276 907 253 967 276 940 b 222 849 276 879 256 857 b 179 843 211 846 193 843 b 158 844 174 843 165 843 z "},"":{"ha":385,"x_min":0,"x_max":0,"o":"m 306 699 l 306 801 l 79 801 l 79 699 z "},"":{"ha":228,"x_min":0,"x_max":0,"o":"m 189 642 l 56 642 l 8 410 l 128 410 z "},"":{"ha":213,"x_min":0,"x_max":0,"o":"m 174 510 l 174 640 l 39 640 l 39 510 z "},"":{"ha":385,"x_min":0,"x_max":0,"o":"m 306 -58 l 306 44 l 79 44 l 79 -58 z "},"":{"ha":228,"x_min":0,"x_max":0,"o":"m 189 -115 l 56 -115 l 8 -347 l 128 -347 z "},"":{"ha":213,"x_min":0,"x_max":0,"o":"m 174 -247 l 174 -117 l 39 -117 l 39 -247 z "},"½":{"ha":1150,"x_min":0,"x_max":0,"o":"m 131 49 l 229 -25 l 921 924 l 822 997 z m 119 915 l 119 792 b 199 828 143 800 174 814 l 199 469 l 335 469 l 335 972 l 231 972 b 119 915 194 953 153 932 z m 672 94 l 672 0 l 1039 0 l 1039 111 l 851 111 b 972 232 892 146 936 188 b 1025 368 1004 274 1025 318 b 844 513 1025 458 938 513 b 664 365 749 513 669 461 l 793 344 b 842 406 793 382 813 406 b 889 361 871 406 889 389 b 849 269 889 329 871 296 b 672 94 797 206 742 153 z "},"⅓":{"ha":1154,"x_min":0,"x_max":0,"o":"m 822 997 l 131 49 l 229 -25 l 921 924 z m 335 469 l 335 972 l 231 972 b 119 915 194 953 153 932 l 119 792 b 199 828 143 800 174 814 l 199 469 z m 790 206 b 824 210 801 208 818 210 b 908 150 872 210 908 192 b 846 96 908 113 876 96 b 769 147 806 96 782 115 l 663 99 b 851 -11 696 25 771 -11 b 1043 143 947 -11 1043 42 b 953 269 1043 199 1007 250 b 1019 378 993 290 1019 336 b 836 513 1019 463 932 513 b 671 410 764 513 696 476 l 778 360 b 832 406 783 390 801 406 b 886 358 868 406 886 385 b 843 308 886 332 871 315 b 800 304 833 306 817 304 l 789 304 z "},"⅔":{"ha":1293,"x_min":0,"x_max":0,"o":"m 963 997 l 269 49 l 368 -25 l 1061 924 z m 119 564 l 119 471 l 486 471 l 486 582 l 297 582 b 419 703 339 617 383 658 b 472 839 451 743 472 789 b 292 983 472 929 383 983 b 111 836 194 983 115 932 l 240 815 b 289 876 240 853 260 876 b 336 832 317 876 336 860 b 296 740 336 800 317 767 b 119 564 243 676 188 624 z m 929 206 b 963 210 940 208 957 210 b 1047 150 1011 210 1047 192 b 985 96 1047 113 1015 96 b 908 147 944 96 921 115 l 801 99 b 990 -11 835 25 910 -11 b 1182 143 1086 -11 1182 42 b 1092 269 1182 199 1146 250 b 1158 378 1132 290 1158 336 b 975 513 1158 463 1071 513 b 810 410 903 513 835 476 l 917 360 b 971 406 922 390 940 406 b 1025 358 1007 406 1025 385 b 982 308 1025 332 1010 315 b 939 304 972 306 956 304 l 928 304 z "},"¼":{"ha":1114,"x_min":0,"x_max":0,"o":"m 822 997 l 131 49 l 229 -25 l 921 924 z m 335 469 l 335 972 l 231 972 b 119 915 194 953 153 932 l 119 792 b 199 828 143 800 174 814 l 199 469 z m 589 222 l 589 110 l 806 110 l 806 0 l 938 0 l 938 110 l 1003 110 l 1003 218 l 938 218 l 938 501 l 799 501 b 589 222 731 408 658 311 z m 806 218 l 717 218 b 806 344 742 251 779 304 z "},"¾":{"ha":1222,"x_min":0,"x_max":0,"o":"m 932 997 l 239 49 l 338 -25 l 1031 924 z m 239 676 b 272 681 250 679 267 681 b 357 621 321 681 357 663 b 294 567 357 583 325 567 b 218 618 254 567 231 586 l 111 569 b 300 460 144 496 219 460 b 492 614 396 460 492 513 b 401 740 492 669 456 721 b 468 849 442 761 468 807 b 285 983 468 933 381 983 b 119 881 213 983 144 947 l 226 831 b 281 876 232 861 250 876 b 335 829 317 876 335 856 b 292 779 335 803 319 786 b 249 775 282 776 265 775 l 238 775 z m 697 222 l 697 110 l 914 110 l 914 0 l 1046 0 l 1046 110 l 1111 110 l 1111 218 l 1046 218 l 1046 501 l 907 501 b 697 222 839 408 767 311 z m 914 218 l 825 218 b 914 344 850 251 888 304 z "},"⅛":{"ha":1168,"x_min":0,"x_max":0,"o":"m 822 997 l 131 49 l 229 -25 l 921 924 z m 335 469 l 335 972 l 231 972 b 119 915 194 953 153 932 l 119 792 b 199 828 143 800 174 814 l 199 469 z m 1057 143 b 979 264 1057 194 1033 238 b 1042 371 1021 292 1042 329 b 863 514 1042 449 971 514 b 685 371 754 514 685 449 b 746 264 685 329 706 292 b 669 143 693 238 669 194 b 863 -10 669 46 764 -10 b 1057 143 961 -10 1057 46 z m 814 365 b 863 413 814 392 835 413 b 913 365 890 413 913 392 b 863 317 913 338 890 317 b 814 365 835 317 814 338 z m 806 147 b 863 204 806 179 831 204 b 921 147 896 204 921 179 b 863 92 921 117 896 92 b 806 147 831 92 806 117 z "},"⅜":{"ha":1278,"x_min":0,"x_max":0,"o":"m 932 997 l 239 49 l 338 -25 l 1031 924 z m 239 676 b 272 681 250 679 267 681 b 357 621 321 681 357 663 b 294 567 357 583 325 567 b 218 618 254 567 231 586 l 111 569 b 300 460 144 496 219 460 b 492 614 396 460 492 513 b 401 740 492 669 456 721 b 468 849 442 761 468 807 b 285 983 468 933 381 983 b 119 881 213 983 144 947 l 226 831 b 281 876 232 861 250 876 b 335 829 317 876 335 856 b 292 779 335 803 319 786 b 249 775 282 776 265 775 l 238 775 z m 1167 143 b 1089 264 1167 194 1143 238 b 1151 371 1131 292 1151 329 b 972 514 1151 449 1081 514 b 794 371 864 514 794 449 b 856 264 794 329 815 292 b 779 143 803 238 779 194 b 972 -10 779 46 874 -10 b 1167 143 1071 -10 1167 46 z m 924 365 b 972 413 924 392 944 413 b 1022 365 1000 413 1022 392 b 972 317 1022 338 1000 317 b 924 365 944 317 924 338 z m 915 147 b 972 204 915 179 940 204 b 1031 147 1006 204 1031 179 b 972 92 1031 117 1006 92 b 915 147 940 92 915 117 z "},"⅝":{"ha":1264,"x_min":0,"x_max":0,"o":"m 918 997 l 225 49 l 324 -25 l 1017 924 z m 458 861 l 458 972 l 158 972 b 142 714 156 906 149 790 l 229 661 b 285 689 246 682 264 689 b 346 629 324 689 346 664 b 286 567 346 594 325 567 b 218 614 263 567 232 576 l 111 563 b 297 460 147 492 217 460 b 482 638 400 460 482 536 b 333 794 482 718 424 794 b 267 778 313 794 288 790 b 274 861 269 804 272 833 z m 1153 143 b 1075 264 1153 194 1129 238 b 1138 371 1117 292 1138 329 b 958 514 1138 449 1067 514 b 781 371 850 514 781 449 b 842 264 781 329 801 292 b 765 143 789 238 765 194 b 958 -10 765 46 860 -10 b 1153 143 1057 -10 1153 46 z m 910 365 b 958 413 910 392 931 413 b 1008 365 986 413 1008 392 b 958 317 1008 338 986 317 b 910 365 931 317 910 338 z m 901 147 b 958 204 901 179 926 204 b 1017 147 992 204 1017 179 b 958 92 1017 117 992 92 b 901 147 926 92 901 117 z "},"⅞":{"ha":1175,"x_min":0,"x_max":0,"o":"m 829 997 l 136 49 l 235 -25 l 928 924 z m 485 894 l 485 972 l 115 972 l 115 861 l 329 861 b 151 496 282 772 211 636 l 276 442 b 485 894 338 586 417 765 z m 1064 143 b 986 264 1064 194 1040 238 b 1049 371 1028 292 1049 329 b 869 514 1049 449 978 514 b 692 371 761 514 692 449 b 753 264 692 329 713 292 b 676 143 700 238 676 194 b 869 -10 676 46 771 -10 b 1064 143 968 -10 1064 46 z m 821 365 b 869 413 821 392 842 413 b 919 365 897 413 919 392 b 869 317 919 338 897 317 b 821 365 842 317 821 338 z m 813 147 b 869 204 813 179 838 204 b 928 147 903 204 928 179 b 869 92 928 117 903 92 b 813 147 838 92 813 117 z "},"∂":{"ha":764,"x_min":0,"x_max":0,"o":"m 35 947 b 401 725 172 889 303 822 b 354 731 388 728 371 731 b -4 371 154 731 -4 564 b 376 -17 -4 163 163 -17 b 771 367 608 -17 771 143 b 99 1104 771 732 440 960 z m 538 538 b 575 357 561 483 575 422 b 386 149 575 246 504 149 b 190 372 267 149 190 260 b 417 567 190 496 289 567 b 538 538 457 567 499 557 z "},"Ω":{"ha":1103,"x_min":0,"x_max":0,"o":"m 21 154 l 21 0 l 494 0 l 494 169 b 269 524 353 224 269 375 b 551 814 269 701 392 814 b 833 524 711 814 833 701 b 608 169 833 375 750 224 l 608 0 l 1082 0 l 1082 154 l 843 154 b 1040 536 972 250 1040 392 b 551 989 1040 815 815 989 b 63 536 288 989 63 815 b 260 154 63 392 131 250 z "},"∆":{"ha":879,"x_min":0,"x_max":0,"o":"m 896 0 l 524 972 l 360 972 l -17 0 z m 611 168 l 260 168 l 435 649 l 438 649 z "},"∏":{"ha":764,"x_min":0,"x_max":0,"o":"m 771 640 l 771 801 l -7 801 l -7 640 l 115 640 l 115 0 l 308 0 l 308 640 l 456 640 l 456 0 l 650 0 l 650 640 z "},"∑":{"ha":764,"x_min":0,"x_max":0,"o":"m 582 507 l 329 804 l 722 804 l 722 972 l 24 972 l 24 869 l 336 501 l 10 101 l 10 0 l 756 0 l 756 168 l 318 168 z "},"Δ":{"ha":764,"x_min":0,"x_max":0,"o":"m 778 0 l 471 801 l 296 801 l -15 0 z m 506 163 l 250 163 l 375 508 l 378 508 z "},"Ω":{"ha":1103,"x_min":0,"x_max":0,"o":"m 21 154 l 21 0 l 494 0 l 494 169 b 269 524 353 224 269 375 b 551 814 269 701 392 814 b 833 524 711 814 833 701 b 608 169 833 375 750 224 l 608 0 l 1082 0 l 1082 154 l 843 154 b 1040 536 972 250 1040 392 b 551 989 1040 815 815 989 b 63 536 288 989 63 815 b 260 154 63 392 131 250 z "},"μ":{"ha":764,"x_min":0,"x_max":0,"o":"m 46 731 l 46 -347 l 243 -347 l 243 -7 b 306 -17 261 -12 282 -17 b 532 100 385 -17 472 18 l 547 0 l 718 0 l 718 731 l 521 731 l 521 244 b 363 153 483 186 421 153 b 243 357 246 153 243 264 l 243 731 z "},"π":{"ha":764,"x_min":0,"x_max":0,"o":"m 22 731 l 22 571 l 101 571 l 101 115 b 88 0 101 88 101 53 l 285 0 b 294 108 292 40 294 81 l 294 571 l 446 571 l 446 246 b 447 194 446 229 446 208 b 639 -28 458 85 519 1 l 713 131 b 639 215 661 140 640 165 b 638 258 638 228 638 243 l 638 571 l 761 571 l 761 731 z "},"µ":{"ha":764,"x_min":0,"x_max":0,"o":"m 46 731 l 46 -347 l 243 -347 l 243 -7 b 306 -17 261 -12 282 -17 b 532 100 385 -17 472 18 l 547 0 l 718 0 l 718 731 l 521 731 l 521 244 b 363 153 483 186 421 153 b 243 357 246 153 243 264 l 243 731 z "},"∕":{"ha":563,"x_min":0,"x_max":0,"o":"m 563 1004 l 403 1067 l 0 -19 l 160 -83 z "},"∙":{"ha":764,"x_min":0,"x_max":0,"o":"m 488 332 l 488 539 l 275 539 l 275 332 z "},"^":{"ha":764,"x_min":0,"x_max":0,"o":"m 674 458 l 465 967 l 299 967 l 90 458 l 271 458 l 382 721 l 493 458 z "},"_":{"ha":764,"x_min":0,"x_max":0,"o":"m 764 -307 l 764 -169 l 0 -169 l 0 -307 z "},"~":{"ha":764,"x_min":0,"x_max":0,"o":"m 179 369 b 178 386 178 375 178 381 b 231 444 178 421 199 444 b 533 321 319 444 376 321 b 739 531 658 321 739 407 b 736 557 739 540 738 550 l 586 550 b 588 533 588 544 588 539 b 533 475 588 499 565 475 b 231 599 444 475 388 599 b 25 389 106 599 25 513 b 28 363 25 379 26 369 z "},"√":{"ha":764,"x_min":0,"x_max":0,"o":"m 790 1042 l 586 1042 l 374 321 l 371 321 l 268 731 l -6 731 l -6 569 l 106 569 l 272 0 l 454 0 z "},"∞":{"ha":1081,"x_min":0,"x_max":0,"o":"m 549 450 b 286 600 465 539 378 600 b 46 353 151 600 46 490 b 286 101 46 213 150 101 b 532 251 378 101 450 163 b 794 101 614 163 703 101 b 1035 350 929 101 1035 211 b 794 600 1035 489 931 600 b 549 450 703 600 631 539 z m 654 351 b 775 439 701 400 743 439 b 846 351 818 439 846 396 b 775 264 846 307 818 264 b 654 351 742 264 701 303 z m 426 353 b 306 264 379 303 338 264 b 235 353 263 264 235 308 b 306 439 235 397 263 439 b 426 353 339 439 379 401 z "},"∫":{"ha":764,"x_min":0,"x_max":0,"o":"m 53 -264 b 214 -307 107 -289 163 -307 b 372 -254 283 -307 335 -290 b 447 -39 419 -208 443 -136 l 482 772 b 506 874 485 824 489 856 b 564 892 518 888 536 892 b 658 863 597 892 628 882 l 710 1015 b 525 1058 656 1040 588 1058 b 358 1000 451 1058 397 1039 b 288 790 314 956 292 885 l 256 -21 b 236 -122 254 -71 250 -103 b 192 -142 225 -136 214 -142 b 104 -111 160 -142 135 -131 z "},"≈":{"ha":764,"x_min":0,"x_max":0,"o":"m 153 182 b 257 250 183 235 219 250 b 511 175 333 250 410 175 b 724 322 611 175 688 235 l 611 410 b 507 342 581 357 546 342 b 253 417 431 342 356 417 b 40 269 154 417 76 357 z m 40 547 l 153 460 b 257 528 183 511 219 528 b 511 453 333 528 410 453 b 724 600 611 453 688 513 l 611 686 b 507 619 581 635 546 619 b 253 694 431 619 356 694 b 40 547 153 694 78 635 z "},"≠":{"ha":764,"x_min":0,"x_max":0,"o":"m 44 644 l 44 488 l 322 488 l 246 376 l 44 376 l 44 219 l 140 219 l 74 119 l 192 39 l 314 219 l 718 219 l 718 376 l 421 376 l 496 488 l 718 488 l 718 644 l 601 644 l 672 749 l 554 831 l 429 644 z "},"≤":{"ha":764,"x_min":0,"x_max":0,"o":"m 17 621 l 17 485 l 746 193 l 746 358 l 258 553 l 746 747 l 746 911 z m 17 157 l 17 0 l 746 0 l 746 157 z "},"≥":{"ha":764,"x_min":0,"x_max":0,"o":"m 17 911 l 17 747 l 504 553 l 17 358 l 17 193 l 746 485 l 746 621 z m 17 157 l 17 0 l 746 0 l 746 157 z "},"<":{"ha":764,"x_min":0,"x_max":0,"o":"m 17 503 l 17 367 l 746 76 l 746 240 l 258 435 l 746 629 l 746 794 z "},"=":{"ha":764,"x_min":0,"x_max":0,"o":"m 44 656 l 44 488 l 718 488 l 718 656 z m 44 376 l 44 210 l 718 210 l 718 376 z "},">":{"ha":764,"x_min":0,"x_max":0,"o":"m 17 794 l 17 629 l 504 435 l 17 240 l 17 76 l 747 367 l 747 503 z "},"◊":{"ha":764,"x_min":0,"x_max":0,"o":"m 29 486 l 301 0 l 463 0 l 735 486 l 463 972 l 301 972 z m 222 486 l 381 775 l 542 486 l 381 197 z "},"+":{"ha":764,"x_min":0,"x_max":0,"o":"m 33 515 l 33 349 l 297 349 l 297 83 l 464 83 l 464 349 l 729 349 l 729 515 l 464 515 l 464 779 l 297 779 l 297 515 z "},"−":{"ha":764,"x_min":0,"x_max":0,"o":"m 44 515 l 44 349 l 718 349 l 718 515 z "},"±":{"ha":764,"x_min":0,"x_max":0,"o":"m 25 678 l 25 511 l 297 511 l 297 238 l 464 238 l 464 511 l 738 511 l 738 678 l 464 678 l 464 950 l 297 950 l 297 678 z m 25 167 l 25 0 l 738 0 l 738 167 z "},"÷":{"ha":764,"x_min":0,"x_max":0,"o":"m 33 357 l 729 357 l 729 514 l 33 514 z m 486 53 l 486 260 l 274 260 l 274 53 z m 486 611 l 486 818 l 274 818 l 274 611 z "},"×":{"ha":764,"x_min":0,"x_max":0,"o":"m 688 246 l 500 433 l 686 619 l 568 738 l 381 551 l 196 738 l 76 619 l 264 432 l 76 246 l 194 128 l 381 314 l 569 128 z "},"ʼ":{"ha":500,"x_min":0,"x_max":0,"o":"m 194 1042 l 138 703 l 303 703 l 396 1042 z "},"○":{"ha":508,"x_min":0,"x_max":0,"o":"m 49 401 b 254 196 49 288 140 196 b 460 401 368 196 460 288 b 254 607 460 515 368 607 b 49 401 140 607 49 515 z "},"△":{"ha":553,"x_min":0,"x_max":0,"o":"m 511 397 l 83 638 l 83 154 z "},"¬":{"ha":764,"x_min":0,"x_max":0,"o":"m 25 606 l 25 439 l 571 439 l 571 165 l 738 165 l 738 606 z "},"⇒":{"ha":1451,"x_min":0,"x_max":0,"o":"m 82 186 l 978 186 l 856 65 l 961 -39 l 1369 367 l 961 772 l 856 668 l 978 547 l 82 547 l 82 400 l 1125 400 l 1161 367 l 1125 333 l 82 333 z "},"⇔":{"ha":1719,"x_min":0,"x_max":0,"o":"m 1246 547 l 474 547 l 596 668 l 490 772 l 82 367 l 490 -39 l 596 65 l 474 186 l 1246 186 l 1124 65 l 1229 -39 l 1638 367 l 1229 772 l 1124 668 z m 326 400 l 1393 400 l 1429 367 l 1393 333 l 326 333 l 290 367 z "},"∀":{"ha":957,"x_min":0,"x_max":0,"o":"m 17 972 l 382 0 l 543 0 l 940 972 l 719 972 l 654 792 l 308 792 l 246 972 z m 478 303 l 476 303 l 364 629 l 596 629 z "},"∃":{"ha":806,"x_min":0,"x_max":0,"o":"m 74 972 l 74 804 l 499 804 l 499 556 l 74 556 l 74 388 l 499 388 l 499 168 l 74 168 l 74 0 l 697 0 l 697 972 z "},"∄":{"ha":806,"x_min":0,"x_max":0,"o":"m 561 1058 l 429 1093 l 394 972 l 74 972 l 74 804 l 346 804 l 275 556 l 74 556 l 74 388 l 226 388 l 164 168 l 74 168 l 74 0 l 115 0 l 93 -79 l 225 -114 l 257 0 l 697 0 l 697 972 l 536 972 z m 499 388 l 499 168 l 306 168 l 368 388 z m 499 804 l 499 556 l 417 556 l 488 804 z "},"∪":{"ha":764,"x_min":0,"x_max":0,"o":"m 69 392 b 381 -17 69 103 194 -17 b 694 392 568 -17 694 103 l 694 731 l 533 731 l 533 343 b 382 144 533 201 467 144 b 231 343 297 144 231 201 l 231 731 l 69 731 z "},"∩":{"ha":764,"x_min":0,"x_max":0,"o":"m 694 339 b 383 747 694 628 569 747 b 69 339 196 747 69 628 l 69 0 l 231 0 l 231 388 b 382 586 231 529 297 586 b 533 388 467 586 533 529 l 533 0 l 694 0 z "},"⊆":{"ha":764,"x_min":0,"x_max":0,"o":"m 696 265 l 696 426 l 488 426 b 238 631 308 426 238 522 b 488 835 238 739 308 835 l 696 835 l 696 996 l 515 996 b 53 631 188 996 53 843 b 515 265 53 418 188 265 z m 81 0 l 696 0 l 696 161 l 81 161 z "},"⊇":{"ha":764,"x_min":0,"x_max":0,"o":"m 249 265 b 711 631 576 265 711 418 b 249 996 711 843 576 996 l 68 996 l 68 835 l 276 835 b 526 631 456 835 526 739 b 276 426 526 522 456 426 l 68 426 l 68 265 z m 683 161 l 68 161 l 68 0 l 683 0 z "},"⊂":{"ha":764,"x_min":0,"x_max":0,"o":"m 696 0 l 696 161 l 488 161 b 238 365 308 161 238 257 b 488 569 238 474 308 569 l 696 569 l 696 731 l 515 731 b 53 365 188 731 53 578 b 515 0 53 153 188 0 z "},"⊃":{"ha":764,"x_min":0,"x_max":0,"o":"m 249 0 b 711 365 576 0 711 153 b 249 731 711 578 576 731 l 68 731 l 68 569 l 276 569 b 526 365 456 569 526 474 b 276 161 526 257 456 161 l 68 161 l 68 0 z "},"⊄":{"ha":764,"x_min":0,"x_max":0,"o":"m 229 -139 l 361 -174 l 413 6 b 515 0 444 1 478 0 l 696 0 l 696 161 l 488 161 l 457 161 l 575 569 l 696 569 l 696 731 l 621 731 l 661 869 l 528 904 l 478 729 b 53 365 176 718 53 569 b 279 35 53 214 121 92 z m 431 565 l 326 199 b 238 365 264 236 238 299 b 431 565 238 461 293 547 z "},"⊅":{"ha":764,"x_min":0,"x_max":0,"o":"m 535 869 l 403 904 l 351 725 b 249 731 319 728 285 731 l 68 731 l 68 569 l 276 569 b 306 568 286 569 296 569 l 189 161 l 68 161 l 68 0 l 143 0 l 103 -139 l 236 -174 l 286 0 b 711 365 586 11 711 161 b 485 694 711 517 642 638 z m 438 531 b 526 365 500 492 526 431 b 333 164 526 269 471 182 z "},"∈":{"ha":764,"x_min":0,"x_max":0,"o":"m 696 0 l 696 161 l 488 161 b 253 285 354 161 282 214 l 696 285 l 696 446 l 253 446 b 488 569 282 517 354 569 l 696 569 l 696 731 l 515 731 b 53 365 188 731 53 578 b 515 0 53 153 188 0 z "},"∉":{"ha":764,"x_min":0,"x_max":0,"o":"m 229 -139 l 361 -174 l 413 6 b 515 0 444 1 478 0 l 696 0 l 696 161 l 488 161 l 457 161 l 493 285 l 696 285 l 696 446 l 539 446 l 575 569 l 696 569 l 696 731 l 621 731 l 661 869 l 528 904 l 478 729 b 53 365 176 718 53 569 b 279 35 53 214 121 92 z m 431 565 l 396 446 l 253 446 b 431 565 278 506 333 553 z m 350 285 l 326 199 b 253 285 290 221 267 250 z "},"◻":{"ha":764,"x_min":0,"x_max":0,"o":"m 122 557 l 122 38 l 642 38 l 642 557 z m 274 406 l 490 406 l 490 189 l 274 189 z "},"⋄":{"ha":764,"x_min":0,"x_max":0,"o":"m 382 -104 l 674 347 l 382 799 l 90 347 z m 263 347 l 382 535 l 501 347 l 382 160 z "},"∴":{"ha":764,"x_min":0,"x_max":0,"o":"m 283 0 l 283 207 l 71 207 l 71 0 z m 489 349 l 489 556 l 276 556 l 276 349 z m 694 0 l 694 207 l 482 207 l 482 0 z "},"⇽":{"ha":1349,"x_min":0,"x_max":0,"o":"m 550 -89 l 550 292 l 1267 292 l 1267 442 l 550 442 l 550 821 l 82 367 z m 406 481 l 406 251 l 290 367 z "},"⇾":{"ha":1349,"x_min":0,"x_max":0,"o":"m 1267 367 l 799 821 l 799 442 l 82 442 l 82 292 l 799 292 l 799 -89 z m 1058 367 l 943 251 l 943 481 z "},"⇿":{"ha":1718,"x_min":0,"x_max":0,"o":"m 550 -89 l 550 292 l 1168 292 l 1168 -89 l 1636 367 l 1168 821 l 1168 442 l 550 442 l 550 821 l 82 367 z m 1428 367 l 1313 251 l 1313 481 z m 406 481 l 406 251 l 290 367 z "},"→":{"ha":1350,"x_min":0,"x_max":0,"o":"m 82 292 l 983 292 l 754 65 l 861 -39 l 1268 367 l 861 772 l 754 668 l 983 442 l 82 442 z "},"↔":{"ha":1675,"x_min":0,"x_max":0,"o":"m 367 292 l 1308 292 l 1079 65 l 1186 -39 l 1593 367 l 1186 772 l 1079 668 l 1308 442 l 367 442 l 596 668 l 489 772 l 82 367 l 489 -39 l 596 65 z "}," ":{"ha":174,"x_min":0,"x_max":0,"o":""}," ":{"ha":347,"x_min":0,"x_max":0,"o":""}}}
